<?xml version="1.0" standalone="no"?>
<!DOCTYPE svg PUBLIC "-//W3C//DTD SVG 1.1//EN" "http://www.w3.org/Graphics/SVG/1.1/DTD/svg11.dtd" >
<svg xmlns="http://www.w3.org/2000/svg">
<metadata></metadata>
<defs>
<font id="dawning_of_a_new_dayregular" horiz-adv-x="652" >
<font-face units-per-em="2048" ascent="1638" descent="-410" />
<missing-glyph horiz-adv-x="922" />
<glyph horiz-adv-x="0" />
<glyph unicode="&#xd;" horiz-adv-x="682" />
<glyph unicode=" "  horiz-adv-x="922" />
<glyph unicode="&#x09;" horiz-adv-x="922" />
<glyph unicode="&#xa0;" horiz-adv-x="922" />
<glyph unicode="!" horiz-adv-x="226" d="M58 1084q10 10 20 10q22 0 39 -80t20 -314t5 -264v-32q0 -46 -28 -46q-22 0 -30 20q-10 38 -15 304t-7 290zM140 24q0 26 21 41t45 15q0 -82 -36 -82q-30 0 -30 26z" />
<glyph unicode="&#x22;" horiz-adv-x="396" d="M58 995q0 35 30 35q36 0 52 -45t16 -99t-22 -104h-8q-18 0 -43 89t-25 124zM224 1009q0 21 15 36t32 15t31 -7t21 -20t12 -26t6 -34t2 -31t1 -18l-2 -44l-4 -64l-18 -22q-4 14 -50 104t-46 111z" />
<glyph unicode="#" horiz-adv-x="870" d="M66 462q0 30 25 53t53 33q80 28 80 72l-10 234q62 0 66 -46q4 -14 10 -77t10 -75q4 2 28 8l36 8q48 12 64 24l32 22q30 20 30 45t-11 66t-11 75t24 34q14 0 36 -16l36 -134l2 -2h4q28 0 78 13t74 13q0 -44 -80 -54q-30 -4 -55 -28t-25 -72q0 -116 30 -116q40 0 132 37 t106 41q18 -4 18 -12q0 -16 -51 -38t-132 -57t-81 -47v-282h-38l-36 224q-8 2 -18 2q-52 0 -176 -68l-16 -10v-186l-46 -12q-2 8 -5 71t-8 76t-24 17t-37 0q-52 -10 -52 28q0 14 41 30t55 16v152q-14 -14 -76 -38t-82 -24zM300 408q58 14 94 27t76 52t40 95l-22 92 q-36 0 -105 -40t-83 -72v-154z" />
<glyph unicode="$" horiz-adv-x="602" d="M32 212q0 24 7 53t36 91t39 87t42 55t62 36q32 -26 -62 -140q-60 -72 -70 -106t-10 -56t18 -56q34 -64 134 -80q10 -2 27 -2t35 18q2 8 12 40t14 45t14 45t14 50t11 47t10 49t7 44q4 36 -2 84q-102 102 -102 194q0 24 6 46q40 160 192 172q0 32 14 77t38 63h2q4 -2 6 -2 q16 -4 16 -19t-6 -55q-12 -106 -8 -126q0 -24 17 -67t17 -68t-6 -52t-50 -61t-44 -45t26 -69q52 -116 52 -174t-10 -96q-62 -176 -208 -248l-70 -266q-8 -18 -32 -18h-8t-20 2q12 72 30 144q32 126 24 128q-76 36 -135 92t-69 88t-10 56zM334 719q0 -17 21 -51t45 -48 l48 180q6 16 -4 24q-14 12 -30 12q-40 0 -78 -94q-2 -6 -2 -23zM354 106q12 -12 29 -2t29 32q18 32 36 80l10 30q6 50 6 86q0 102 -40 110q-54 -236 -70 -336zM476 684l18 -6q10 28 10 45t-10 23z" />
<glyph unicode="%" horiz-adv-x="698" d="M36 787q0 53 44 92t96 39l32 2q56 0 56 -42q0 -50 -60 -38q-24 6 -49 -3t-33 -41q28 -54 78 -46q54 8 93 35t56 39t47 37t36 29q40 -4 40 -34q0 -6 -2 -12l-236 -834q-16 -6 -28 -6q-30 0 -30 50q0 136 172 670h-12q-26 0 -75 -24t-88 -24t-88 29t-49 82zM386 244 q60 198 176 198q72 0 122 -78q32 -52 32 -98t-24 -88q-46 -84 -180 -112q-126 0 -126 178zM466 244q0 -108 58 -108q134 42 134 132q0 66 -58 100q-24 16 -51 16t-52 -37t-31 -103z" />
<glyph unicode="&#x26;" horiz-adv-x="616" d="M108 138q0 48 16 106t93 168t86 147t10 111t13 118t39 70t45 26q92 0 92 -125t-108 -245q108 -16 159 -50t51 -92t-54 -192q-20 -56 -20 -127t42 -139l-20 -80l-92 176q-40 -26 -92 -44t-74 -18t-32 4q-92 24 -132 96q-22 42 -22 90zM160 158q0 -32 16 -62q28 -50 90 -68 q6 -2 16 -2q40 0 82 22t52 52q2 12 2 52q0 92 14 120q-24 -18 -52 -9t-28 61l4 70q0 48 -24 50q-24 -8 -46 -35t-69 -105t-52 -96t-5 -50zM360 702q0 -44 20 -72q32 14 39 20t11 9t7 11t3 10q8 14 10 25t2 23q0 50 -52 86q-40 -68 -40 -112zM442 369q0 -29 13 -81t51 -70 q2 4 6 18q12 42 24 69t12 39q0 50 -100 76q-6 -22 -6 -51z" />
<glyph unicode="'" horiz-adv-x="188" d="M48 794q0 14 18 73t18 86t-11 63t-11 60q38 0 68 -29t30 -65q0 -140 -94 -218q-4 0 -11 8t-7 22z" />
<glyph unicode="(" horiz-adv-x="560" d="M136 215q0 153 30 260t155 301t195 194q6 0 30 -8t24 -22q0 -10 -6 -22q-44 0 -98 -59t-102 -149q-88 -164 -136 -292q-28 -84 -28 -152q0 -196 48 -336t72 -140h4q-6 -32 -34 -32q-6 0 -12 2q-76 22 -109 162t-33 293z" />
<glyph unicode=")" horiz-adv-x="524" d="M36 -164q12 52 30 62t38 1t50 19q74 80 167 399t123 517q-8 164 -172 210q14 52 58 52q16 0 36 -6q60 -16 94 -61t40 -94t6 -77q0 -84 -20 -162q-12 -246 -162 -616q-114 -276 -218 -276q-36 0 -70 32z" />
<glyph unicode="*" horiz-adv-x="550" d="M94 530q0 40 49 58t57 42l4 20q-10 8 -34 25t-30 22t-20 19t-16 21t-4 23q-6 22 6 66q100 -28 154 -116q70 112 102 112q20 0 31 -18t13 -34t3 -43t3 -35l96 -26q-8 -32 -26 -49t-34 -19q-42 -6 -48 -22l-50 -180l-56 14l-30 106q-20 0 -56 -25t-48 -25q-36 0 -51 27 t-15 37z" />
<glyph unicode="+" horiz-adv-x="826" d="M76 554q0 10 4 24l306 -82q10 44 26 132t30 136q8 22 24 22t28 -3t18 -7q18 -10 12 -42l-64 -236l48 -16l282 -34q14 8 14 -4q0 -28 -50 -41t-117 -13t-189 30l-72 -274h-68l76 280q-26 4 -132 30t-118 28q-58 22 -58 70z" />
<glyph unicode="," horiz-adv-x="324" d="M170 -147q0 11 4 19l6 20q50 100 50 124q2 6 2 21t-22 64t-18 73q8 18 30 18q78 0 78 -134q0 -32 -10 -54q-38 -140 -106 -170q-14 8 -14 19z" />
<glyph unicode="-" d="M98 471q0 25 4 34t13 12t16 4t22 0t21 -1l384 10h10q32 0 32 -40q0 -34 -42 -36l-440 -8h-2q-18 0 -18 25z" />
<glyph unicode="." horiz-adv-x="246" d="M130 31q0 17 2 25q8 32 54 36q14 -6 29 -32t11 -42q-18 -36 -37 -36t-39 16t-20 33z" />
<glyph unicode="/" horiz-adv-x="878" d="M48 54l18 34q118 170 716 838l6 2l12 2l22 2q22 0 22 -22q0 -6 -1 -14t-19 -32t-26 -30q-420 -384 -704 -814q0 -6 -12 -6q-30 0 -34 40z" />
<glyph unicode="0" horiz-adv-x="924" d="M42 268q0 136 42 268q72 278 220 416q114 108 238 108q36 0 70 -8q246 -76 246 -342q0 -104 -36 -234q-80 -292 -246 -456q-132 -130 -266 -130q-34 0 -68 8q-82 26 -136 122q-64 112 -64 248zM112 320q0 -88 28 -160q70 -160 154 -180h10q80 0 178 69t147 127t73 140 q72 186 72 310q0 18 -2 50t-19 108t-69 115t-74 49q-40 14 -80 14q-108 0 -204 -100q-132 -136 -186 -350q-28 -104 -28 -192z" />
<glyph unicode="1" horiz-adv-x="400" d="M8 18l198 738q36 156 36 190q-4 -2 -74 -29t-82 -27h-22q18 64 62 103t111 75t97 60l4 -2q2 2 4 2q14 -6 14 -80q-186 -668 -266 -1052q-10 -12 -38 -30t-34 -26q-10 22 -10 78z" />
<glyph unicode="2" horiz-adv-x="620" d="M18 -28q44 182 138 324q86 130 169 231t105 129q40 44 70 158q24 72 24 126t-46 66q-6 2 -14 2q-70 0 -160 -180q-16 -32 -27 -42t-17 -8q-24 4 -12 56q42 134 117 214t135 80q8 0 18 -2q64 -20 64 -106t-34 -202q-30 -120 -88 -218t-112 -152q-152 -152 -182 -278 q40 -14 112 -66t97 -59t40 -11t23 -5t20 2t20 11q24 24 34 72q10 28 10 60l-18 130q0 18 3 26t5 15t3 11t4 9t5 5t6 -2l70 -70q6 -6 -34 -226q-32 -96 -83 -127t-78 -31t-43 4q-38 8 -96 66q-70 70 -99 70t-74 -41t-69 -41h-6z" />
<glyph unicode="3" horiz-adv-x="792" d="M42 163q0 53 16 115q30 114 132 188l6 -4q22 -4 10 -40q-6 -32 -41 -82t-42 -78t-7 -67t24 -87q38 -70 88 -74q22 -4 57 -4t96 20t132 98t105 202q14 52 14 105t-22 109q-48 120 -142 120q-12 0 -41 -3t-45 3t-17 8t-8 12t1 24q14 52 138 84q46 12 94 49t66 99 q0 22 -10 22q-4 2 -104 36q-26 6 -60 6l-138 -10q-16 0 -26 2q-22 6 -22 33t14 65q4 12 30 19t42 7t34 -3t59 -13t72 -16t179 -50q4 8 22 14q30 8 30 -22q0 -22 -46 -104q-64 -108 -116 -160q-12 -12 -12 -18l-2 -6v-8q-2 -2 -2 -4q104 -122 104 -246q0 -48 -20 -147 t-64 -180t-96 -129q-128 -114 -254 -114q-44 0 -84 6q-68 24 -116 116q-28 54 -28 107z" />
<glyph unicode="4" horiz-adv-x="710" d="M32 675q0 13 8 29q0 16 154 228t170 212q28 -6 18 -46q-2 -4 -4 -10t-4 -10t-6 -8q-4 -6 -14 -6l-170 -276l-6 -22q42 -12 115 -52t95 -46q58 -16 66 -12l16 14q0 2 6 18q14 50 18 68t18 66t19 68t13 58q18 72 22 140q8 12 12 20l6 12q6 6 16 6q2 -4 15 -24t5 -28 l-74 -382q-8 -38 12 -50h6q24 0 50 38t36 82q24 -8 24 -37t-12 -67q-24 -92 -140 -108q-4 -6 -25 -82t-34 -133t-20 -95t-20 -117t-23 -133q16 -8 4 -46q-22 -68 -50 -68q-6 0 -10 2q-26 0 -24 28l118 644q2 8 -232 108l-36 10q-22 6 -53 6t-73 -18q-12 6 -12 19z" />
<glyph unicode="5" horiz-adv-x="694" d="M10 95q0 67 19 142t52 121t73 46q8 0 14 -2q30 -16 20 -50q0 -8 -2 -10l-96 -98q-2 -8 -4 -12q-8 -22 -8 -58t12 -75t43 -47t61 -8q82 0 170 54q124 74 176 246q22 92 22 158q0 196 -152 234q-12 4 -32 4l-118 -12q-16 0 -26 2l-28 8l40 242q-8 36 -8 66q0 66 38 98 q164 -4 344 -16l24 -4q24 -4 24 -26q0 -46 -33 -61t-58 -13t-56 8t-48 10t-71 4l-54 6l-20 -20l-44 -162q-10 -32 22 -32q24 -6 76 -6t76 -8q114 -26 156 -160q18 -58 18 -140t-28 -192q-58 -210 -208 -310q-108 -74 -204 -74q-34 0 -66 10l-80 22q-36 48 -36 115z" />
<glyph unicode="6" horiz-adv-x="586" d="M46 232q0 96 26 208q54 220 163 422t237 324l6 -4q12 -2 14 -20t-4 -36l-10 -22q-94 -100 -204 -311t-138 -329t-28 -178t16 -106q34 -92 106 -114q70 266 174 382q50 56 78 46q48 -8 76 -70q16 -34 16 -71t-10 -73q-50 -162 -132 -256q-144 -164 -300 -44 q-86 68 -86 252zM296 79q0 -21 33 -21t84 52t67 126q16 52 16 84q0 52 -54 52q-70 0 -126 -190q-2 -10 -11 -46t-9 -57z" />
<glyph unicode="7" horiz-adv-x="536" d="M62 976l56 214q24 -8 57 -32t58 -30t95 -6l40 2q82 0 102 -6t21 -6t4 -1t5 -3q2 -10 2 -26q-10 -26 -32 -134q-32 -108 -115 -363t-121 -399l-50 -190q4 -4 5 -22t-3 -26q-2 0 -26 -24t-30 -32h-8q-18 4 -18 56t58 222q38 144 123 419t121 411q-124 44 -184 44t-88 -6 q-16 -6 -30 -38t-42 -24z" />
<glyph unicode="8" horiz-adv-x="668" d="M36 184q0 64 23 151t39 126t39 75t40 58t49 61t46 57q-6 36 -24 88q-24 60 -24 89t12 97q32 120 80 172t94 52q14 0 26 -4q106 -28 140 -118q10 8 22 32q28 56 54 50q10 -4 10 -18t-12 -42q-16 -54 -36 -82q-188 -260 -194 -276l-10 -24q76 -106 76 -244q0 -82 -26 -174 q-44 -180 -116 -269t-144 -89q-16 0 -34 4q-102 30 -124 132q-6 32 -6 96zM104 202q0 -40 6 -58q18 -54 92 -72q20 -12 58 -12q78 56 134 236q20 78 20 132q0 172 -80 220q-82 -68 -130 -139t-74 -169t-26 -138zM290 906q0 -72 58 -88h6q28 0 84 66q76 90 76 129t-40 67 t-64 28q-8 2 -24 2t-43 -32t-40 -85t-13 -87z" />
<glyph unicode="9" horiz-adv-x="466" d="M64 793q0 47 31 164t83 180t106 63q14 0 28 -4q98 -26 114 -198q-8 -36 -102 -442t-110 -486l-20 -70q-16 -82 -50 -92l-10 56l154 656l-4 28l-88 -12q-12 0 -56 12q-42 12 -66 74q-10 24 -10 71zM122 834q0 -96 66 -114q10 -2 20 -2q88 0 144 218l-12 108q0 46 -20 58 t-49 12t-69 -46t-68 -144q-12 -54 -12 -90z" />
<glyph unicode=":" horiz-adv-x="248" d="M64 178q16 50 59 38t43 -38q0 -28 -20 -41t-32 -13t-18 2t-12 10q-20 34 -20 42zM128 442q0 22 16 38t22 16q16 0 28 -8t12 -17t-4 -17q-14 -36 -44 -36t-30 24z" />
<glyph unicode=";" horiz-adv-x="326" d="M170 144q0 8 2 16q10 30 44 30t34 -40t-40 -40t-40 34zM170 -290q8 44 10 66l8 56q8 42 10 53t2 15q10 38 38 26q32 -8 32 -39t-10 -63q0 -26 -23 -73t-47 -47q-2 0 -20 6z" />
<glyph unicode="&#x3c;" horiz-adv-x="954" d="M144 468l4 12q4 18 48 34q4 2 104 38t116 44q354 206 420 258q2 -2 18 -2q34 -16 32 -42q-20 -66 -384 -238q-82 -40 -140 -68l-58 -26q-6 -16 10 -32l584 -608l-4 -8v-8q-4 -22 -21 -35t-28 -13t-17 1t-8 4t-4 9q-6 20 -272 340q-366 316 -400 340z" />
<glyph unicode="=" horiz-adv-x="440" d="M122 456q0 28 26 28q10 0 24 -6q56 -6 132 -39t84 -77l-22 -12l-202 54q-14 6 -28 24t-14 28zM130 195q12 33 28 35q6 -6 42 -12q138 -28 172 -68q-16 -22 -66 -22q-78 0 -154 24q-34 10 -22 43z" />
<glyph unicode="&#x3e;" horiz-adv-x="882" d="M134 18q0 22 2 24l574 454q-196 158 -408 444q-6 2 -11 19t-1 21l48 26l4 -2h4q24 -8 40 -30q184 -236 442 -474q12 -8 12 -17t-2 -13v-10q-44 -12 -184 -106q-348 -258 -396 -306q-4 -4 -26 -32q-32 -42 -58 -42q-6 0 -32 6q-8 16 -8 38z" />
<glyph unicode="?" horiz-adv-x="852" d="M202 -80q0 20 8 36q8 30 17 41t25 9q16 -6 16 -26q0 -40 -14 -54t-21 -20t-9 -6h-4q-18 0 -18 20zM210 1032q0 38 14 86q34 132 139 214t179 82q16 0 30 -4q102 -26 136 -150q16 -56 16 -126t-23 -156t-51 -146t-80 -115t-77 -76t-107 -85l-10 -34q-22 -80 -50 -244 q-32 -44 -45 -44t-13 31t39 183t37 164q174 88 236 208q44 82 62 157t18 141q0 212 -130 212q-58 0 -133 -58t-119 -168q-12 -22 -12 -50t-6 -72t-15 -44t-22 28t-13 66z" />
<glyph unicode="@" horiz-adv-x="870" d="M64 348q0 128 40 246q68 252 198 348q90 66 198 66q140 0 228 -84q54 -50 81 -135t27 -164t-16 -141q-32 -126 -93 -200t-129 -74q-16 0 -40 7t-66 66t-45 60t-11 1t-38 -18t-38 -20t-16 -2h-12q-66 14 -84 40q-26 40 -26 103t4 83q28 96 77 132t84 36t57 -6 q78 -26 82 -218q4 -56 5 -75t7 -51q12 -68 68 -68q42 0 80 51t62 137t24 161t-28 147q-54 130 -174 158q-34 10 -68 10q-104 0 -190 -92q-112 -120 -168 -328q-26 -84 -26 -167t24 -167q48 -170 174 -204q32 -10 57 -10t56 11t51 36t38 47t30 20q18 -6 18 -32t-8 -58 q-108 -78 -224 -78q-22 0 -42 2q-100 28 -164 162t-64 262zM276 436q0 -52 48 -66q8 -2 26 -2t45 32t37 68q28 94 28 124q0 36 -43 36t-79 -36t-49 -85t-13 -71z" />
<glyph unicode="A" horiz-adv-x="1348" d="M16 86q0 16 20 28q20 -4 61 -4t118 43t157 143q130 160 242 362q-8 2 -38 25t-37 30t-43 41t-64 62q-76 72 -84 108q0 26 17 32t37 6h24q62 0 180 -38t178 -38q48 58 139 285t135 287q48 86 66 86q10 0 10 -28v-22l46 -836h20q126 60 158 60t32 -16q0 -24 -64 -65 t-126 -53q-2 -20 -2 -89t34 -351t35 -311t-3 -29q-20 0 -34 -12q-34 128 -56 374t-54 372q-56 4 -217 43t-231 39q-50 -56 -240 -346q-56 -84 -137 -151t-159 -67h-4l-96 2q-20 12 -20 28zM448 886q0 -44 91 -110t133 -66q10 0 18 4q12 14 24 48t32 66q-16 8 -246 76 q-12 2 -22 2q-30 0 -30 -20zM726 676q54 -14 150 -28t122 -22q-76 106 -198 164q-2 -4 -20 -30q-38 -48 -54 -84zM850 848l258 -210q2 40 2 123t-8 289t-20 318z" />
<glyph unicode="B" horiz-adv-x="1882" d="M12 336q62 0 96 -112q14 -40 53 -75t101 -35q92 20 186 146t162 276q200 446 344 618q128 170 252 282q232 210 420 210q68 0 105 -47t37 -131t-65 -169t-175 -167t-120 -92q92 -26 169 -62t101 -53t57 -47t49 -62q42 -84 42 -190t-94 -258t-238 -260t-274 -108 q-166 0 -302 130t-136 294l2 66q22 22 57 22t51 -24q4 -6 4 -12q0 -18 -44 -40q0 -148 112 -264t249 -116t265 94t209 233t81 251t-78 193t-182 119t-185 38t-155 -8q-92 -10 -125 -10t-123 10l-400 -730q-48 -82 -120 -136t-168 -54t-158 87t-62 193zM958 1028 q120 0 372 30q366 250 400 434q0 56 -31 86t-85 30q-110 0 -284 -134l-66 -66q-48 -48 -100 -101t-58 -59q-68 -80 -148 -220z" />
<glyph unicode="C" horiz-adv-x="878" d="M38 454q0 90 46 278q66 274 203 516t279 268q42 0 72 -30t49 -52t40 -87t21 -107t-2 -68q0 -20 -28 -20h-6q-2 0 -2 2q-12 174 -54 234q-38 52 -100 54q-82 0 -193 -192t-186 -413t-75 -346t76 -270t214 -145t269 144t161 292q22 -6 22 -35t-4 -41q-46 -148 -179 -292 t-264 -144t-222 98t-127 222q-10 44 -10 134z" />
<glyph unicode="D" horiz-adv-x="1232" d="M40 -10l146 1116q6 80 10 94l8 58h40q0 -50 -12 -132q-54 -404 -104 -870q2 2 14 13t15 14t13 11t14 11t13 9t15 8q30 10 48 10q60 0 111 -47t82 -102t86 -102t123 -47q108 0 235 117t209 271t82 260q0 2 -1 6l-1 4q-86 -82 -169 -117t-194 -35t-189 41t-122 115 q-82 140 -82 346q0 182 86 366q44 92 121 151t181 59t195 -67t143 -171q106 -216 106 -434v-18q0 -166 -67 -368t-185 -359t-274 -203q-36 -10 -74 -10q-122 0 -252 116q-14 18 -34 52q-52 84 -100 112q-14 10 -16 8q-48 -12 -80 -60t-46 -96q-36 -130 -94 -130zM484 1019 q0 -183 85 -303t267 -120q24 -2 48 -2q204 0 282 184q38 92 38 196t-34 220q-66 230 -220 334q-58 40 -122 52q-90 0 -160 -57t-108 -145q-76 -176 -76 -359z" />
<glyph unicode="E" horiz-adv-x="944" d="M26 314q0 76 42 162t78 132t108 130v8l-20 176q0 88 54 217t147 233t179 104t138 -61t52 -143q0 -2 1 -16t0 -22t-3 -18q-4 -24 -28 -24h-10q-24 142 -72 198q-26 28 -56 28q-134 0 -239 -170t-105 -312q0 -56 20 -144h18q48 0 157 40t165 40h38q114 0 114 -65t-62 -111 q-104 -74 -260 -74q-38 0 -94 30t-86 30h-10q-192 -146 -192 -362q0 -100 44 -154t148 -90q40 -12 74 -12t82 6t97 18t113 42t107 55t101 59t98 52q18 -40 18 -55t-18 -23q-446 -218 -583 -218t-246 88t-109 226zM386 728q0 -48 114 -48q70 0 142 24t104 72q-28 40 -84 40 t-166 -26t-110 -62z" />
<glyph unicode="F" horiz-adv-x="1422" d="M8 246q48 76 126 76q14 0 26 -20q-60 -28 -60 -48q0 -52 195 -117t283 -65q192 0 314 117t214 323q20 42 20 78t-19 54t-49 18h-8q-36 -18 -58 -40q-20 8 -20 38q0 134 48 134q24 0 62 -48t72 -48h6q46 152 52 346q2 62 2 184h-14q-268 -194 -490 -194q-58 0 -166 42 t-158 42q-22 0 -48 -33t-50 -33l-2 64q0 162 44 170q30 -16 38 -74q194 -118 370 -118q112 0 287 72t211 156q10 22 27 76t33 93t40 81q54 92 148 92q38 0 38 -51t-38 -99q-114 -142 -190 -228q2 -24 2 -89t-39 -245t-39 -262q0 -30 56 -30q98 0 228 116l20 -20 q0 -6 -23 -36t-35 -38q-72 -52 -117 -68t-147 -28q-158 -336 -294 -450q-60 -50 -146 -85t-207 -35t-290 64t-255 166zM1330 1398q120 106 154 210h-10q-54 0 -99 -72t-45 -128v-10z" />
<glyph unicode="G" horiz-adv-x="1572" d="M8 208l18 18q190 56 332 224q118 138 241 329t185 279l2 20q0 18 -26 52q-72 100 -72 194v33t2 56t14 67q20 74 110 74q62 0 92 -48t30 -123t-58 -229q26 -2 30 -2q122 0 299 125t221 237q4 10 18 112t18 112q8 62 62 136t110 74t56 -86q0 -44 -25 -98t-49 -87t-68 -87 t-48 -60q0 -140 19 -404t21 -340t2 -136t-17 -164t-63 -215t-139 -181t-236 -71h-2q-142 0 -251 120q-110 121 -110 287q0 110 82 194t190 84q0 -22 -54 -60t-108 -97t-54 -131q0 -140 101 -241q100 -100 223 -100h2q124 1 200 65t110 160q72 204 72 394l-6 232 q-24 262 -56 492q-170 -144 -285 -215t-285 -125q0 -2 -18 -20l-396 -584q-34 -28 -101 -114t-131 -139t-138 -53q-34 0 -46 11t-20 29zM746 1340q0 -78 20 -124t48 -46h4q2 0 4 2q56 38 68 114q4 26 6 73v9q0 42 -16 82q-18 44 -58 44q-76 0 -76 -154zM1520 1682 q0 -2 2 -38q116 96 116 232q-50 0 -84 -69t-34 -125z" />
<glyph unicode="H" horiz-adv-x="1788" d="M12 230q12 96 152 152v-18q-98 -98 -98 -122q0 -54 75 -113t167 -93t150 -34q126 0 259 109t216 256t83 261q0 36 -40 90t-40 110q0 114 134 158q4 26 14 76q20 88 20 121v45q-62 -46 -300 -76q-78 -12 -134 -12q-114 0 -130 44q0 88 28 88q4 -88 168 -88q132 0 266 48 q126 45 126 89v5q26 112 64 186q56 116 88 116q42 -10 42 -56q0 -68 -100 -218q-12 -20 -18 -28q-58 -72 -58 -296q34 -32 158 -123t197 -173t99 -184l96 926l44 -8q-90 -1176 -102 -1466q-10 -24 -66 -24v460q0 28 -38 116t-56 92q-114 -56 -215 -56t-173 18 q-128 -374 -298 -532q-140 -132 -334 -132h-20q-60 0 -164 47t-185 116q-77 66 -77 118v5zM996 824q0 -50 36 -102q46 96 46 192q-82 0 -82 -90zM1090 684q40 -48 152 -48q150 0 224 48q-134 134 -142 144t-27 24t-37 26t-40 26q-44 26 -68 26h-6q-22 -6 -50 -210 q-4 -30 -6 -36zM1224 1422q62 82 62 138q-34 0 -48 -45t-14 -85v-8z" />
<glyph unicode="I" horiz-adv-x="1094" d="M26 62q0 34 30 34q20 0 54 -11t58 -11q138 0 278 75t249 198t195 270t133 300t47 287t-60 203t-194 69q-76 0 -139 -79t-92 -173t-29 -164q0 -212 190 -268l-38 -16q-4 -4 -49 18t-65 38q-98 60 -98 232q0 90 35 195t111 189t170 84q296 0 296 -349t-212 -657t-528 -470 q-112 -58 -216 -58q-40 0 -83 15t-43 49z" />
<glyph unicode="J" horiz-adv-x="1102" d="M-86 -328q0 142 50 268q26 68 79 112t124 44t71 -32l-2 -8q-20 2 -50 2t-73 -20t-71 -64t-46 -106q-26 -98 -26 -193t13 -169t43 -150t89 -124t139 -48q124 0 234 89t184 227q144 270 186 518q-280 86 -280 320q-2 34 -2 82t13 116t60 141t89 123t129 140t143 154 q12 30 21 85t17 102t24 95q34 100 140 100q44 0 55 -11t11 -63t-30 -105t-88 -118t-71 -85t-18 -52t-15 -130q-42 -362 -70 -544t-28 -270l176 16q28 0 28 -30q0 -38 -55 -48t-117 -16t-74 -38q-52 -234 -131 -395t-149 -250t-172 -149t-206 -60t-173 53t-105 139 q-66 164 -66 352zM630 350q0 -94 65 -176t157 -82q20 0 26 20l114 796v74q-130 -100 -246 -291t-116 -341zM1104 1228q2 -14 2 -18q118 92 118 218q-62 0 -91 -65t-29 -135z" />
<glyph unicode="K" horiz-adv-x="1590" d="M18 182q0 154 44 220q20 30 50 30q60 0 60 -32q-24 -20 -48 -56q-50 -64 -50 -164q0 -338 294 -338q168 0 317 111t231 277t82 330l-204 -18q-100 0 -173 46t-73 144q0 40 44 64q60 32 158 32t162 -29t128 -107l20 40q12 18 44 191q31 168 31 181q0 3 -3 23q-2 13 -2 15 q-46 -2 -195 -20t-210 -18t-61 12q0 18 94 64l152 -4q148 0 224 48q48 28 86 174q12 50 42 90t78 40q20 0 31 -10t12 -21t1 -25v-18q0 -100 -154 -230l-114 -532v-12q120 0 244 54t232 144q192 158 356 382h38v-36q0 -16 -170 -228q-216 -262 -682 -396v-18q16 -30 125 -239 t201 -370t216 -356t239 -307t201 -112q198 0 339 75t281 233q58 78 58 150t-62 127t-150 83v24q120 0 195 -64t75 -172t-75 -208t-186 -168t-233 -110t-220 -42h-6q-96 0 -220 112t-248 294t-233 362t-211 358t-142 234q-18 -6 -18 -20q-128 -292 -208 -408 q-190 -270 -492 -272h-114q-120 32 -174 145t-54 251zM622 722q0 -62 52 -93t118 -31l60 -2q102 0 112 42q-46 114 -218 114q-25 2 -45 2q-79 0 -79 -32zM1286 1358q38 36 38 63t-2 29q-36 -20 -36 -86v-6z" />
<glyph unicode="L" horiz-adv-x="1916" d="M62 296q0 140 136 216q112 64 270 94q98 20 160 28h36q142 0 382 -96q2 0 18 -9t32 -17t36 -16q38 -20 60 -35t22 -17q30 -18 38 -18q158 204 190 308q-14 -2 -53 -2t-147 23t-233 70t-215 130t-90 177q0 38 30 38l18 -22q16 -22 41 -55t55 -69q70 -86 100 -100 q228 -124 454 -124q68 0 94 22l492 490q26 28 80 50q74 30 128 30q130 0 134 -104q0 -98 -45 -179t-108 -132t-161 -95q-138 -62 -340 -116q-32 -8 -46 -12q-4 -4 -49 -20t-51 -20q-24 -36 -210 -328q108 -138 308 -594q68 -160 148 -310t185 -239t225 -89h6q288 0 390 24 q220 48 262 246q10 52 10 130t-60 166t-150 128l38 4q112 0 172 -100t60 -204t-23 -176t-57 -120t-95 -81t-115 -51t-140 -28q-126 -12 -312 -12q-20 -4 -38 -4q-82 0 -171 63t-164 179t-154 267t-141 291q-152 338 -270 438h-20q-52 -36 -228 -129t-186 -99 q-120 -60 -352 -60q-210 0 -324 114q-62 64 -62 156zM134 297q0 -79 50 -129q86 -84 254 -84q242 0 342 58q70 36 203 109t139 79l36 38q-44 82 -219 137t-279 55t-179 -10t-160 -36t-136 -82t-51 -135zM1628 838h30q104 0 242 51t251 152t113 217q0 76 -84 76 q-26 0 -65 -14t-71 -46z" />
<glyph unicode="M" horiz-adv-x="1712" d="M46 52q0 64 38 114q342 414 378 604q16 16 16 198t-14 182q-2 0 -2 -2l-368 -152q-12 0 -21 9t-9 21q0 22 68 38l28 8q20 10 88 48q152 84 214 88q40 0 52 -19t17 -30t7 -32t3 -32t0 -35t-1 -51t-10 -136t-10 -179q340 446 410 510q30 28 49 28t27 -14t26 -70l-2 -88v-26 q-60 -416 -76 -472q40 70 138 256t160 295t152 214t164 119q88 0 88 -268v-50q-2 -142 -46 -424q-66 -440 -66 -553t13 -211t61 -214q100 -240 434 -296q54 20 64 20t10 -2q0 -18 -61 -40t-80 -22t-29 4q-196 0 -312 142q-102 128 -142 312q-6 78 -6 233t40 531t44 520 l-2 154q-6 58 -28 58q-180 -140 -324 -402q-78 -142 -109 -206t-77 -164q-66 -144 -142 -386q-16 -16 -34 -16t-24 16q0 118 134 908q-7 34 -26 34q-15 0 -36 -20q-14 -12 -200 -247t-230 -295q-8 -22 -47 -159t-47 -161q-32 -100 -105 -175t-161 -75q-70 0 -74 24 q-2 12 -2 36zM120 50q54 0 110 57t82 115l36 90q34 92 40 118v10q-4 -6 -38 -45t-57 -66t-59 -73t-58 -80q-56 -84 -56 -126z" />
<glyph unicode="N" horiz-adv-x="1262" d="M26 124q10 104 81 225t134 191t163 170q4 20 4 119t-40 277q-6 20 -38 20q-2 0 -18 -2q-140 -110 -268 -110q0 40 20 50q8 4 27 11t36 13t114 57t109 55l18 2q22 0 38 -17t20 -41l58 -394l678 658l38 -36l8 -116q0 -152 -43 -452t-43 -454l4 -208q40 -322 358 -322 q16 0 76 8t74 12q-38 -58 -198 -58t-245 79t-123 243l-2 236q0 138 30 408t30 406v124l-644 -606l-38 -304q-14 -122 -99 -250t-195 -128q-54 0 -90 38q-34 36 -34 90v6zM100 133q0 -87 40 -87q70 0 126 65t86 159q58 192 58 326h-22q-4 0 -49 -46t-63 -68 q-70 -70 -123 -166t-53 -183z" />
<glyph unicode="O" horiz-adv-x="1016" d="M46 578l2 158v40q0 34 36 264q14 78 48 160q60 152 144 152v-30q-176 -294 -176 -758q0 -172 32 -274t144 -196q24 -18 62 -18q188 0 333 173t187 373q-32 -2 -64 -2q-230 0 -337 113t-107 401q0 162 29 293t65 207t102 129t138 53t122 -37t82 -97q60 -108 86 -226 l2 -284l-22 -434v-20l134 58v-12q0 -14 -12 -21t-44 -23q-94 -48 -99 -57t-28 -88t-27 -85q-198 -472 -528 -472q-142 0 -208 102q-68 104 -80 200q-16 148 -16 258zM404 1091q0 -111 31 -204t107 -160t184 -67l54 -2q86 0 98 40q16 118 40 172v20l16 376q0 132 -30 248 q-58 224 -194 244q-10 2 -20 2q-58 0 -110 -53t-84 -139t-54 -188q-38 -178 -38 -289z" />
<glyph unicode="P" horiz-adv-x="992" d="M24 190q0 72 12 125t44 104t53 80t75 89t80 93t148 169t168 184q76 168 76 380q0 26 -2 52q-52 0 -148 -36t-170 -36v50q88 0 144 11t120 51q10 6 68 64t88 58q0 -74 -31 -215t-31 -188v-59l416 418q116 114 250 114q50 0 71 -18t21 -92t-50 -220t-129 -284t-193 -236 t-213 -98t-211 96q-40 -212 -76 -322q-6 -28 -40 -106t-53 -114t-59 -101t-77 -104t-90 -70t-117 -31t-104 60t-40 132zM80 204q0 -148 98 -148q86 0 163 76t128 188t89 240q72 246 72 398q-24 0 -148 -131t-169 -189t-90 -110t-60 -74t-39 -66q-44 -76 -44 -184zM698 989 q0 -59 45 -120t117 -61q108 0 213 92t175 225t113 274t43 243q-92 0 -182 -58q-28 -18 -88 -60q-256 -256 -342 -354t-90 -110t-4 -71z" />
<glyph unicode="Q" horiz-adv-x="1238" d="M32 470q0 380 132 716q86 224 204 250h92q0 -24 -31 -45t-69 -43t-48 -44q-220 -484 -220 -787t244 -405q14 -4 36 -4t66 22t80 56t80 79t54 55q-16 60 -29 132t-29 151t-17 94t-14 87t-13 90l-14 164l4 44q0 20 -2 52q4 24 11 96t13 119t23 116t39 115q58 110 158 140 q174 0 174 -514v-32q0 -470 -210 -834q34 -108 99 -189t159 -81q150 0 272 100q2 0 2 -10q0 -66 -97 -104t-190 -38t-159 59t-142 185q-66 -70 -104 -105t-112 -76t-158 -41t-163 73t-105 171q-16 82 -16 186zM594 1048q0 -250 78 -518q6 -28 23 -61t30 -33t57 95t58 151 q78 260 78 443t-60 465q-6 26 -27 51t-49 25q-34 0 -86 -105t-64 -163q-36 -208 -37 -257t-1 -93z" />
<glyph unicode="R" horiz-adv-x="1264" d="M34 78q0 142 110 450q44 120 84 228q106 280 126 394q0 64 -15 85t-35 13t-57 -28t-63 -24v48q10 16 74 56t86 40q42 0 64 -91t22 -177q12 36 154 156q278 234 392 234q74 0 74 -94t-94 -252q-118 -204 -266 -288q-56 -32 -108 -38q70 -62 226 -394q54 -114 130 -205 t150 -91q152 0 216 100q0 -148 -236 -174q-90 4 -163 84t-122 188t-99 212t-117 161t-137 57q-20 0 -42 -4q-82 -384 -110 -487t-38 -149t-27 -78t-20 -38t-23 -21t-24 -19q-112 4 -112 146zM94 62q10 -44 26 -44q22 0 58 90q76 192 112 470q12 86 12 124t-2 54 q-74 -92 -140 -326t-66 -368zM388 877q0 -33 4 -49q40 -16 84 -16q92 0 200 72q156 108 256 262q76 116 76 184q0 48 -42 48q-12 0 -47 -8t-131 -70q-40 -40 -129 -109t-144 -116t-91 -106t-36 -92z" />
<glyph unicode="S" horiz-adv-x="1600" d="M18 122q0 12 68 34q236 72 312 142q-30 114 -30 209t36 165q72 132 326 206q-16 -12 -5 -27t5 -21q-184 -94 -234 -138q-78 -72 -78 -186q0 -74 36 -186q56 42 352 252t508 386l38 510q12 136 106 249t220 113q88 -18 125 -57t37 -87q0 -116 -128 -294q-58 -80 -112 -148 q-148 -184 -206 -280q18 -122 18 -235t-16 -215t-46 -195t-78 -165q-130 -194 -326 -194q-230 0 -530 266l-366 -176q-10 0 -21 30t-11 42zM490 254q248 -230 442 -230q152 0 244 106q118 138 146 320q20 120 20 223t-20 201zM1386 1062q86 72 243 302t157 312q0 46 -32 71 t-78 25q-182 -20 -232 -204q-36 -134 -44 -297t-14 -209z" />
<glyph unicode="T" horiz-adv-x="1372" d="M26 424q0 102 58 198t145 96t87 -50q-96 0 -166 -63t-70 -169q0 -146 149 -254t301 -108q256 0 444 246q336 474 340 1116q-8 -6 -68 -52t-118 -84t-153 -66t-154 -28t-99 2t-126 11t-162 9t-142 -22v250q12 4 22 4q36 0 36 -84q0 -40 -8 -78q76 0 214 -17t210 -17 q152 0 314 75t250 191q0 60 22 138t38 105t38 43q32 0 52 -29q21 -30 21 -77q0 -46 -53 -118q-54 -74 -59 -128t-34 -252t-48 -283t-61 -206t-111 -251t-153 -228t-200 -162t-244 -64q-176 0 -344 120t-168 286zM1428 1626q20 24 20 47t-2 47q-18 -34 -18 -94z" />
<glyph unicode="U" horiz-adv-x="1516" d="M36 1200l4 12q50 38 94 38q18 0 0 -38q16 -4 62 -4t138 42t140 42v-44l-154 -870v-28q0 -90 48 -182t135 -92t177 128t183 380t157 360l98 378q2 20 26 20q30 0 30 -46q0 -110 -49 -335t-49 -339q0 -510 340 -510q50 0 79 12t73 46q4 0 13 -8t9 -10q0 -96 -180 -96 q-116 0 -197 50t-119 130q-78 168 -78 354q0 16 2 74t2 150q-10 -42 -97 -244t-105 -241t-43 -83t-69 -106q-88 -122 -212 -122t-179 96t-55 228l4 74l116 700v76q-64 -40 -136 -40h-78t-47 1t-30 4t-25 7q-28 12 -28 36z" />
<glyph unicode="V" horiz-adv-x="1028" d="M14 1300q0 28 26 40q14 12 104 42t102 36h10q20 0 26 -30q2 -6 5 -38t40 -222t53 -238q26 -108 121 -384t121 -336l20 -36q14 0 20 18q8 12 39 85t37 83q188 706 212 830t52 380q2 10 -2 42q-3 20 -3 35q0 42 23 57h10q28 0 28 -28v-10q0 -34 -5 -94t-8 -105t-56 -273 t-112 -471t-107 -402t-78 -210t-70 -71q-14 12 -56 94l-264 814l-76 414h-8l-12 2q-34 0 -95 -12t-97 -12z" />
<glyph unicode="W" horiz-adv-x="1794" d="M26 1294q0 24 22 28l112 18q22 14 154 70t148 64l20 2q38 0 38 -46q0 -88 -20 -264t-20 -262l2 -72q0 -46 15 -217t23 -219t38 -128t64 -80q22 0 30 20l282 870l20 18q34 -22 38 -56l96 -624q8 -96 92 -210t176 -114q36 0 72 31t62 81q50 98 68 156q64 154 109 344 t45 313t-31 236t-109 206t-182 93q-56 0 -58 -2l-38 -20q-4 0 -11 8t-5 15t6 16t10 15t10 11t14 7t14 4q4 4 26 4h36q100 0 174 -57t112 -147t55 -181t17 -181t-27 -253t-73 -340t-125 -306t-167 -129q-126 0 -216 121t-116 259l-76 510v4t-2 4q-4 4 -16 12l-16 -36 q-52 -208 -74 -286q-72 -266 -172 -470q-4 -12 -10 -15t-8 -5t-10 -2h-22q-104 0 -160 284q-18 90 -18 208l8 794h-48l-244 -112q-16 0 -47 -11t-33 -11h-6q-48 0 -48 30z" />
<glyph unicode="X" horiz-adv-x="1634" d="M54 1256q0 40 122 93t202 53q22 -46 69 -170t82 -202t107 -174t162 -152q28 74 92 269t124 335t136 250q2 12 10 12t26 -19t18 -33q-326 -812 -334 -860q62 -50 153 -164t147 -178q192 -224 362 -224q78 0 156 42l24 -46q-132 -56 -232 -56q-34 0 -74 9t-103 62t-115 109 q-204 224 -358 370q-336 -674 -424 -815t-111 -141t-55 18q326 508 522 1002q-172 132 -262 312q-54 106 -101 224t-67 166l-268 -116q-10 12 -10 24z" />
<glyph unicode="Y" horiz-adv-x="1196" d="M68 -208q0 40 18 38q40 -4 102 -182q196 -380 368 -380q68 0 132 60q176 162 278 698q50 266 60 530q-56 -202 -174 -246q-28 -10 -54 -10q-78 0 -144 90q-112 152 -112 450q0 90 10 188q-22 -4 -109 -59t-113 -55q-32 0 -34 30q18 8 127 79t140 71t37 -13t8 -25 q6 -254 11 -368t49 -196t130 -110q90 20 145 93t76 175t31 203t20 208t30 161l40 -14q-22 -930 -188 -1498q-150 -516 -374 -516q-204 0 -448 426q-62 80 -62 172z" />
<glyph unicode="Z" horiz-adv-x="1446" d="M26 94q68 64 112 88t154 64l38 16l738 570l170 188v18q-58 0 -167 -29t-163 -29q-134 0 -256 60q-26 -44 -74 -56v214q42 0 46 -22q2 -24 41 -51t91 -44t90 -20t116 -3q228 0 332 76q30 22 74 84t88 103t96 41q32 0 39 -11t7 -29q0 -60 -442 -466q-160 -148 -182 -174 q-42 -28 -512 -398l-38 -38h16q116 0 538 -206q170 -82 396 -152t408 -70q106 0 200 24q86 14 113 36t57 49t58 47q8 -24 12 -24q-160 -214 -434 -214q-152 0 -358 68t-376 148t-367 148t-344 68t-261 -94q-52 0 -56 20zM1480 1251q0 -3 7 -3t21 14t14 21t-5 7t-21 -18 t-16 -21z" />
<glyph unicode="[" horiz-adv-x="1238" d="M48 1228q0 10 36 38h4l4 2q88 0 257 -42t273 -42l200 8q2 0 38 12q80 28 120 28q0 -126 -170 -126l-146 6q-16 0 -62 2l-46 2q-176 20 -376 56l-2 -28q0 -70 19 -210t21 -196l-8 -622q42 0 118 27t116 27h764q0 -94 -36 -94q-76 0 -230 19t-206 19h-128t-80 -2 q-60 -4 -122 -18q-6 -2 -92 -39t-126 -37t-46 22l18 582l2 74q0 202 -40 344l-38 114z" />
<glyph unicode="\" horiz-adv-x="690" d="M26 832v20q0 38 30 38h8l58 -58l472 -644q12 -18 33 -32t33 -30t12 -59t-40 -67l-18 18q-48 76 -231 339t-253 357t-104 118z" />
<glyph unicode="]" horiz-adv-x="878" d="M18 1228q8 22 47 22t92 -16t157 -31t207 -15t161 4l132 -1040q20 -68 20 -96q0 -56 -40 -56l-548 18q-140 10 -140 118q28 0 71 -21t69 -21h472q22 0 22 46l-118 900q6 14 6 33t-24 43q-2 0 -173 16t-208 21t-100 19t-65 20z" />
<glyph unicode="^" horiz-adv-x="596" d="M26 850q12 22 70 136l64 130q4 6 46 74t48 76l10 18q30 58 40 65t20 17q16 16 39 16t23 -4q0 -110 98 -366q34 -84 36 -86l36 -76v-4l2 -8q0 -18 -14 -32t-33 -14t-29 22q-102 296 -114 320q0 8 -18 40t-20 36q-64 -40 -142 -218q-70 -162 -132 -162q-22 0 -30 20z" />
<glyph unicode="_" horiz-adv-x="898" d="M40 18v38l582 20l214 2q0 -12 -8 -36t-14 -24h-774z" />
<glyph unicode="`" horiz-adv-x="332" d="M64 1185q0 29 23 29t48 -34t40 -65t40 -63t31 -46t6 -18q0 -16 -10 -20q-14 2 -26 8t-21 10t-19 14l-16 16q-6 6 -18 21t-15 18t-15 22t-30 49t-18 59z" />
<glyph unicode="a" horiz-adv-x="802" d="M0 142q0 148 154 288q120 110 234 110q64 0 114 -32q-58 -148 -58 -276q0 -212 230 -212q58 8 87 24t63 55t66 65h10q-10 -112 -77 -151t-183 -39q-250 0 -270 210q-10 -52 -91 -121t-145 -69h-10q-124 34 -124 148zM62 152q0 -32 3 -51t20 -35t49 -16q88 4 177 141 t95 235q-32 40 -88 40q-72 0 -150 -92t-106 -222z" />
<glyph unicode="b" horiz-adv-x="540" d="M8 209q0 85 18 175q34 382 79 588t87 261t106 55q156 -20 156 -164q0 -62 -28 -146q-72 -210 -258 -434l-70 -78q-28 -180 -28 -244t11 -93t29 -35t58 -2q78 12 124 152q30 88 30 133t-10 67l164 -2q42 0 62 2l46 2q18 0 18 -6q0 -10 -44 -54l-172 -18q-4 -28 -66 -180 q-20 -64 -64 -118t-102 -54h-16q-58 0 -94 54t-36 139zM108 590q76 40 182 232t106 284q0 38 -3 57t-22 36t-57 17q-88 -26 -147 -253t-59 -345v-28z" />
<glyph unicode="c" horiz-adv-x="668" d="M12 149q0 59 22 119q50 134 162 206q66 44 122 44q98 0 164 -114v-6l-36 -36q-42 90 -116 90q-26 0 -54 -12q-98 -34 -160 -150q-42 -78 -42 -156q20 -64 118 -64q68 0 140 20t180 56t144 36t36 -20q0 -10 -4 -22q-304 -138 -474 -138q-96 0 -149 44t-53 103z" />
<glyph unicode="d" horiz-adv-x="832" d="M6 156q40 132 87 212t113 115t120 44t150 9q6 24 20 95t21 96t21 77q24 86 49 131t31 57t9 17t9 11q8 8 26 8q62 0 62 -132v-18q0 -104 -88 -287t-88 -279q0 -214 116 -214q38 0 104 30t104 30l20 -2q-34 -52 -101 -82t-110 -30t-59 2t-30 9t-23 11t-20 19t-16 21t-15 28 t-13 28t-14 34t-15 36q-6 -6 -46 -49t-56 -58t-55 -49t-65 -48q-74 -40 -131 -40t-82 27t-30 58t-5 83zM78 149q0 -105 56 -105q78 0 201 119t123 203q0 50 -21 73t-69 23q-112 0 -201 -104t-89 -209zM548 536q0 -4 2 -18l18 18q24 24 98 284l2 24v30t-1 30t-1 28 q-52 -72 -85 -193t-33 -203z" />
<glyph unicode="e" d="M-2 244q0 128 85 264t219 136q26 0 42 -15t16 -50t-19 -82t-58 -95t-67 -78t-79 -78t-61 -58q-2 -16 -2 -18q0 -54 52 -84t108 -30q134 0 213 48t183 162q16 20 19 32t21 26q20 -8 20 -38q-20 -62 -80 -133t-142 -121q-114 -66 -193 -66t-153 54t-122 190q-2 18 -2 34z M72 302q0 -28 4 -40q74 40 152 137t78 171q-86 0 -160 -92t-74 -176z" />
<glyph unicode="f" horiz-adv-x="648" d="M-64 -478q0 136 14 235t60 269l286 702h14q80 0 80 -98q0 -142 -124 -354q-76 -130 -138 -174q22 -96 162 -96q176 0 348 116q18 12 31 29t23 25t32 8q0 -64 -100 -125t-207 -93t-173 -36q0 -36 18 -105t18 -120t-27 -161t-84 -211t-125 -101q-108 0 -108 290zM-8 -456 q0 -238 70 -238q52 0 107 171t55 258t-26 144t-110 93q-50 -32 -73 -172t-23 -256zM184 274q54 62 94 150t40 160q0 4 -1 16t-1 14l-20 -18l-112 -302v-20z" />
<glyph unicode="g" horiz-adv-x="792" d="M-60 -676q0 148 158 340q12 10 74 60q166 134 190 158q20 34 20 132q0 6 -1 38t-1 38q-144 -96 -240 -96q-84 4 -122 94q-16 40 -16 97t52 133q84 120 278 176q138 0 138 -68l-16 -412q0 -2 1 -18t1 -20q60 24 178 93t218 97q20 -12 20 -30q0 -4 -92 -48 q-288 -140 -344 -206q-30 -308 -49 -400t-24 -117t-23 -73t-38 -70q-54 -60 -124 -60t-137 27t-97 69q-4 20 -4 66zM0 -668q0 -50 56 -81t115 -31t102 71t59 177q30 178 30 292v46q-132 -86 -247 -219t-115 -255zM68 154q0 -28 8 -56q0 -48 72 -48q122 4 188 96t66 160v12 v20q0 44 -20 71t-56 27q-8 2 -18 2q-90 0 -165 -102t-75 -182z" />
<glyph unicode="h" horiz-adv-x="808" d="M-2 28q0 100 70 430t138 566q4 14 23 61t41 68t46 21t38 -10v4q20 -14 32 -68t12 -86q0 -188 -98 -344q-40 -64 -80 -120t-63 -106t-23 -74v-30q110 154 234 154q44 0 64 -10q16 -10 20 -27t5 -86t6 -118t17 -104t33 -71t39 -16t38 10q176 86 232 86q26 0 26 -16t-46 -50 q-108 -78 -236 -78q-66 0 -107 40t-51 101t-13 110t-3 82t4 69q-6 22 -55 22t-95 -50t-75 -119t-56 -137t-51 -102t-40 -34t-24 4q-2 12 -2 28zM186 632l2 -28q94 38 134 332q12 86 12 140t-18 54t-54 -130q-74 -286 -75 -325t-1 -43z" />
<glyph unicode="i" horiz-adv-x="414" d="M14 224q0 84 12 204l8 26q40 128 68 128q40 0 40 -30q0 -6 -2 -12q-76 -186 -76 -354q0 -76 38 -127t116 -51q196 76 246 76q16 0 16 -8q0 -24 -104 -69t-163 -45t-89 9t-44 17t-34 35t-26 72t-6 129zM236 866z" />
<glyph unicode="j" horiz-adv-x="264" d="M-436 -514q0 80 49 162t119 144t140 114t119 89t49 51v206q10 160 50 160q26 0 30 -42q2 -10 0 -20l-4 -268q8 8 228 190q32 16 43 8t11 -16q0 -48 -264 -238l-18 -18q-4 0 -11 -77t-9 -93q-16 -300 -46 -434q-68 -286 -226 -286q-122 0 -191 119t-69 249zM-396 -532 q0 -84 60 -188t140 -104t130 77t72 191q38 200 38 346q0 12 -2 89t-2 93q-138 -74 -278 -200q-158 -142 -158 -304zM170 852z" />
<glyph unicode="k" horiz-adv-x="750" d="M6 -12l114 618l134 564q50 40 82 40q48 0 48 -98q0 -198 -152 -586q-56 -142 -110 -246q16 16 65 70t72 76t70 63t83 59q90 50 182 54q68 -22 68 -73t-97 -146t-215 -159q52 -74 142 -123t176 -49t114 38q4 0 11 -7t7 -11q0 -40 -42 -68t-61 -28t-25 2q-78 6 -167 60 t-168 103t-130 49t-67 -4q-14 -22 -29 -78t-37 -88t-68 -32zM140 470q8 18 32 63t32 62t26 56t27 67t23 72q24 78 50 208q0 98 -26 98q-6 0 -12 -4zM216 298q34 -18 88 -18t136 56q124 88 142 202q-144 0 -366 -240z" />
<glyph unicode="l" horiz-adv-x="466" d="M8 232q8 224 128 544t202 348q24 0 34 -46t10 -76q0 -108 -46 -255t-108 -237q-24 -40 -65 -84t-62 -81t-21 -93q0 -100 55 -164t155 -64q166 0 210 114h22q0 -78 -78 -124t-176 -46t-168 75t-92 189zM100 442q84 58 156 243t74 305q-16 -18 -53 -84t-43 -86 q-134 -350 -134 -378z" />
<glyph unicode="m" horiz-adv-x="1412" d="M-10 18l144 376l92 262q10 4 18 4q30 0 30 -34t-8 -69t-68 -197l302 244q38 22 62 22q42 0 42 -66q0 -38 -23 -140t-25 -118q36 30 150 154q198 214 278 214q28 0 48 -18q0 -66 -40 -196t-40 -216q0 -184 208 -184q112 0 304 78q2 -8 2 -12q0 -48 -129 -86t-195 -38 q-248 0 -248 234q0 62 30 178t30 176q-126 -40 -262 -213t-214 -349q-12 -12 -32 -18t-29 3t-9 26t16 59l124 416q-10 16 -26 16q-52 0 -182 -158q-34 -40 -148 -188q-142 -180 -184 -180q-4 0 -12 7t-6 11z" />
<glyph unicode="n" horiz-adv-x="862" d="M-2 32v44l86 278q0 146 50 216q14 20 26 20q20 0 20 -67t-20 -148t-20 -135q16 16 96 112t96 112q14 8 48 40q72 64 126 64q30 0 38 -20q2 -22 2 -71t-16 -154t-18 -167q0 -94 78 -94q56 0 108 31t84 70t74 90t74 75v-20q0 -96 -124 -199t-226 -103h-66q-30 20 -39 38 l-13 26t-5 25t-1 25v88q0 36 1 125t1 153q-56 -12 -163 -144t-117 -138q-78 -104 -122 -148q-18 -24 -58 -24z" />
<glyph unicode="o" horiz-adv-x="768" d="M4 190q0 96 81 218t187 122q48 0 62 -40q-112 -34 -192 -118t-80 -194q0 -38 4 -60t22 -40t70 -18q108 0 176 90q-20 34 -20 111t13 146t53 133t100 64t82 -38l4 -76q0 -42 -5 -65t-7 -35t-10 -31t-10 -27t-14 -30t-15 -28t-18 -33t-19 -35h40q116 0 340 112l16 -18 q-192 -154 -452 -168l-176 -108q-24 -20 -105 -20t-104 45t-23 141zM372 294q0 -66 20 -70q56 32 87 104t31 140v4l2 26q0 40 -24 48q-52 -30 -84 -108t-32 -144z" />
<glyph unicode="p" horiz-adv-x="746" d="M-122 -508q0 62 9 111t32 113t42 106t52 112t45 98t12 62l-12 158q0 122 48 250q6 2 10 2q42 0 42 -90q0 -40 -14 -88q64 104 157 175t189 95q104 -14 104 -130q0 -26 -6 -60q-24 -146 -126 -276q-62 -78 -112 -86q-2 -2 -2 -8t21 -6t103 32q190 74 280 150q22 18 28 30 q2 28 12 26t10 -15t-4 -31q-30 -106 -222 -192q-132 -58 -332 -98q-6 -2 -20 -6q-38 -10 -38 -12l-16 -20l-36 -282q-8 -20 -30 -98t-24 -104q-46 -152 -114 -162l-10 2q-4 0 -21 12t-20 17t-11 43t-17 73t-9 97zM-72 -463q0 -73 6 -100t8 -40t5 -20t7 -17q8 -22 26 -30 q76 140 101 294t31 368q-98 -124 -141 -253t-43 -202zM176 78q0 -38 8 -72q92 8 210 172q126 174 126 280q0 56 -48 56q-14 0 -32 -4q-118 -32 -200 -198q-64 -126 -64 -234z" />
<glyph unicode="q" horiz-adv-x="782" d="M-2 215q0 63 28 103q72 90 189 148t227 58q24 0 39 -16t15 -38t-5 -31t-15 -26t-16 -39t-55 -170t-55 -174q60 -8 70 -12q14 -4 70 -4q308 266 348 266q6 0 6 -6q0 -30 -124 -148t-214 -176q26 -136 26 -221t-9 -169t-62 -161t-145 -107q-86 0 -86 190l22 332l-2 86 q-42 18 -79 52t-37 64q0 6 4 16t36 54q-22 -10 -51 -10t-73 34q-52 42 -52 105zM60 172q0 -28 58 -28q122 0 195 81t73 207q-46 0 -116 -60q-32 -26 -112 -98q-98 -88 -98 -96v-6zM60 260l2 -2l112 114q-34 -8 -74 -42t-40 -64v-6zM222 94h84q6 0 13 26t7 44zM230 4 q0 -28 40 -28q20 0 20 28t-30 28t-30 -28zM282 -500q0 -72 5 -94t35 -42q136 0 136 338q0 230 -18 242l-108 10q-50 -382 -50 -454z" />
<glyph unicode="r" horiz-adv-x="762" d="M-6 53q0 13 18 35h7q57 0 85 60q30 60 49 129t31 101q-94 38 -94 96q0 106 92 144q32 12 64 12t59 -22t27 -62t-52 -110q6 0 72 16q182 48 220 48q0 -62 -22 -187t-22 -185q2 -46 70 -46q40 0 90 16t97 20t47 -24q-84 -56 -232 -66q-8 -2 -16 -2q-56 0 -87 27t-31 59 t4 54q0 44 19 128t19 126q-36 0 -123 -15t-125 -27q-50 -250 -174 -332q-36 -24 -55 -24t-28 9t-9 22zM164 494q0 -36 58 -58q42 42 42 82q0 16 -9 37t-27 21q-38 0 -64 -82z" />
<glyph unicode="s" horiz-adv-x="886" d="M-20 76q0 10 19 30t81 42l-38 58q-10 8 2 13t18 5l34 -8q36 -10 38 -10h20q26 18 103 81t86 70t115 113q8 10 24 42q34 72 80 72q28 0 28 -29t-20 -65t-20 -56v-374q164 0 224 64q24 24 67 72t89 84v-20q0 -70 -86 -143t-180 -107t-130 -34t-50 2q-54 0 -102 19t-111 57 t-101 56q-84 -56 -137 -56t-53 22zM248 168q22 -44 104 -74t148 -30q0 174 -24 312q-44 -26 -56 -37t-84 -85t-88 -86z" />
<glyph unicode="t" horiz-adv-x="502" d="M-102 428v6q0 47 60 47q7 0 14 -1q8 -1 15 -1q69 0 81 53l94 358l38 38q20 -6 20 -36l-2 -20l-94 -378v-10q16 -6 48 -6t114 23t94 23q0 -110 -148 -110q-46 0 -104 10q-44 -100 -44 -183t44 -152t136 -69q94 14 145 45t75 44t48 13t52 -6q-56 -100 -324 -132h-10 q-138 0 -186 102q-36 74 -36 171t6 167l-24 -6q-6 -6 -34 -10t-54 0t-24 20z" />
<glyph unicode="u" horiz-adv-x="758" d="M8 94q0 128 162 426q12 -24 12 -53t-19 -80t-60 -141t-47 -160q0 -42 28 -46h40q74 0 151 89t121 194t44 167l22 24q28 0 28 -20q-26 -132 -26 -220t13 -129t44 -63t54 -24t57 0q144 70 173 70t29 -10q0 -14 -58 -48t-144 -50q-220 0 -220 200q0 22 2 46q-12 -22 -33 -67 t-33 -69t-36 -57t-48 -49q-66 -42 -154 -42q-38 4 -62 18q-40 22 -40 94z" />
<glyph unicode="v" horiz-adv-x="512" d="M40 558q2 2 6 14t9 20t13 8t8 -2l94 -512l18 18q70 106 108 208q32 94 38 118t21 37t21 15t21 -7t19 -10t132 -45v-20q0 -2 -11 -2q-31 0 -149 16l-162 -386q-16 -38 -66 -38q-24 0 -26 2q-2 26 -94 566z" />
<glyph unicode="w" horiz-adv-x="772" d="M26 364q0 110 8 254q20 0 35 -15t13 -45t-2 -170t4 -178q8 -116 46 -116q20 0 50 32q72 80 132 254q22 68 22 87v23h48q4 -22 14 -122q28 -238 62 -276q46 10 66 129t20 193l38 40q16 -52 23 -70t23 -38t37 -24t59 -4q74 48 89 48t15 -6q0 -28 -49 -63t-61 -35h-14 q-74 0 -102 20q-2 -8 -10 -48t-18 -71t-26 -67q-34 -80 -100 -80q-28 0 -48 42q-26 50 -46 125t-20 79q-142 -256 -218 -256q-90 0 -90 358z" />
<glyph unicode="x" horiz-adv-x="606" d="M36 -178l214 394l-172 404q20 22 37 22t38 -39t59 -148t84 -157q22 26 84 130q68 114 76 123t16 16t18 13q24 14 40 -14l-194 -362q76 -58 196 -78q38 -6 44 -7l6 -1q22 0 54 32t58 32q-22 -114 -114 -114q-78 0 -172 37t-110 43q-38 -44 -87 -146t-82 -146t-55 -44 t-38 10z" />
<glyph unicode="y" horiz-adv-x="632" d="M-40 -780q0 162 112 376t250 358q18 40 18 104t2 86q-118 -154 -228 -154h-4q-88 0 -88 200q0 16 2 85t38 239q2 4 16 11t20 7q24 0 22 -49t-22 -180t-20 -155v-56q0 -24 3 -26t7 -10t11 -6t16 -3t23 1q80 0 126 68q26 36 43 64t34 85t24 78t19 81l14 60q10 6 25 6 t33 -24v-8q0 -68 -29 -209t-29 -237q22 16 123 78t114 73t29 27t16 8q0 -12 -52 -100q-10 -10 -97 -85t-95 -83q-64 -138 -88 -442q-8 -100 -32 -192q-46 -174 -224 -174q-22 0 -55 1t-55 28t-22 69zM20 -725q0 -95 66 -95h25t55 22t57 68t38 96t25 122t16 124t11 125t9 105 q-2 0 -4 2h-4q-60 0 -177 -237t-117 -332z" />
<glyph unicode="z" horiz-adv-x="990" d="M12 32q32 36 88 123t97 141t116 97t159 43h30t46 -16q40 -30 40 -142l-4 -90q40 -34 70 -103t40 -85q264 188 380 188q4 0 11 -8t7 -10l-18 -18q-88 -34 -141 -58t-122 -70t-117 -102q0 -90 -64 -248t-170 -256q-54 -50 -104 -50t-96 46q0 30 10 53t15 35t17 29t18 25 q30 34 35 42t114 144t130 161t21 55q0 156 -74 156q-30 0 -86 -40t-89 -40t-43 2q-32 2 -32 37t36 51t80 24t80 49t36 121t-66 80q-74 0 -144 -59t-158 -181t-108 -144zM332 -578q0 -24 4 -28q100 4 183 154t83 252v28q-72 -50 -171 -187t-99 -219zM374 76q8 -2 17 -2t41 20 h-10q-16 0 -48 -18z" />
<glyph unicode="{" horiz-adv-x="512" d="M44 50q0 138 88 258q38 50 75 95t63 93t26 92t-31 66t-67 25t-67 8t-31 21q0 30 39 56t78 58t39 77t-30 94t-66 85t-66 94t-30 122q0 106 89 172t197 66q138 0 138 -82q-28 0 -71 13t-69 13q-120 0 -188 -96l-2 -86q0 -60 30 -113t66 -84t66 -77t30 -99t-74 -165 q6 -6 26 -20t26 -19t19 -17t18 -20t11 -22q12 -22 12 -74t-39 -119t-85 -117t-85 -126t-39 -178q0 -198 246 -198q88 0 121 15t107 81v-6q0 -2 2 -2l-2 -12q-10 -26 -27 -45t-59 -61t-46 -42h-264q-64 0 -106 50q-68 84 -68 226z" />
<glyph unicode="|" horiz-adv-x="188" d="M44 14q0 786 22 1460q24 18 45 18t31 -18l2 -246q0 -170 -11 -524t-11 -484v-180q-28 -26 -78 -26z" />
<glyph unicode="}" horiz-adv-x="718" d="M20 1398q0 54 97 112t157 58q284 0 284 -288q0 -82 -43 -145t-103 -126t-82 -119q-4 -16 8 -48h138q-10 -42 -19 -58t-30 -35t-31 -36t-10 -55t30 -71t72 -64t84 -70t72 -107t30 -158q0 -154 -115 -303t-267 -149q-92 0 -142 59t-50 157q0 4 1 25t1 23q32 -20 59 -69 t57 -85t82 -36q128 0 204 134t76 270q0 72 -45 132t-99 95t-99 90t-45 121v48l20 56q-4 10 -41 35t-37 61t20 74q228 210 228 340q0 108 -55 169t-155 61q-54 0 -54 -4q-26 -8 -89 -42t-81 -52h-28z" />
<glyph unicode="~" horiz-adv-x="756" d="M82 1042v12q0 74 43 101t67 27t40 -6q46 0 122 -44t126 -44h40t32 1t21 4t17 8t16 13t10 18q10 16 10 69t-15 77t-59 24q0 32 45 32t67 -38t22 -92q0 -108 -55 -148t-151 -40q-54 0 -136 52t-127 52t-113 -78h-22z" />
<glyph unicode="&#xa1;" horiz-adv-x="226" d="M70 38l4 82q2 18 7 214t15 224q8 14 32 14t24 -34v-24q-2 -28 -3 -107t-3 -141q-8 -236 -56 -236q-10 0 -20 8zM150 816q0 22 32 22t32 -60q-22 0 -43 11t-21 27z" />
<glyph unicode="&#xa2;" horiz-adv-x="668" d="M12 172q0 88 80 203t190 137q0 22 4 102q28 18 47 18t29 -18v-102q78 -26 120 -108v-6l-36 -36q-34 68 -82 82v-316q0 -16 2 -30q38 12 145 48t144 36t37 -22q0 -8 -4 -20q-180 -80 -320 -116v-108q-24 -24 -78 -24v118q-42 -6 -80 -6q-160 0 -190 116q-8 26 -8 52z M74 134q22 -66 120 -66q40 0 94 12l-12 310q0 46 4 52q-82 -26 -144 -115t-62 -193z" />
<glyph unicode="&#xa3;" horiz-adv-x="1434" d="M28 214q0 90 82 120q46 18 95 18t99 -14q108 -28 172 -88q16 20 54 132t50 132l-316 70q-14 -2 -14 23t26 25l30 -2q32 0 140 -25t154 -39q18 180 78 300t138 166q86 48 174 48q170 0 292 -128q40 -70 40 -80t-5 -10t-91 56q-150 96 -260 96q-246 0 -320 -466 q286 0 352 -58q26 -26 -14 -36q-8 -4 -20 -4l-336 44q-4 0 -48 -124t-58 -146q174 -4 329 -39t235 -73q154 -70 188 -70t46 10q28 18 40 94l36 24q-2 -102 -16 -152q-20 -62 -78 -62q-36 0 -147 45t-197 75q-194 70 -438 70h-44q-90 -18 -180 -43t-132 -32t-62 -3 q-52 10 -63 55t-11 91zM74 178q14 -38 50 -38t78 16q114 46 222 46q18 0 36 -2q-26 50 -102 74t-128 24q-156 0 -156 -106v-14z" />
<glyph unicode="&#xa4;" horiz-adv-x="958" d="M108 879q0 21 28 21t58 -28t40 -45t23 -27t31 -20t26 -16q4 2 28 17t31 18t28 14t35 15q46 10 70 10q124 0 188 -56q34 28 56 70q48 88 94 88q20 0 20 -22q0 -46 -48 -102q-14 -16 -20 -24t-18 -20q-22 -18 -48 -30q40 -64 40 -176t-64 -198q44 -22 64 -49t23 -30t15 -22 t29 -47t17 -56t-22 -28t-47 31t-40 62t-39 64t-28 39q-90 -104 -218 -104q-6 -2 -12 -2q-34 0 -90 38h-6q-10 -22 -38 -54t-48 -62q-36 -50 -49 -50t-13 8q0 42 30 99t64 95q-86 86 -76 220q4 126 50 192q-62 24 -126 104q-38 42 -38 63zM266 526q0 -116 67 -173t144 -57 t156 59t79 137q8 40 8 75t-5 59t-18 46t-23 35t-32 25t-33 17t-35 11t-29 6t-25 4q-114 0 -184 -64t-70 -180z" />
<glyph unicode="&#xa5;" horiz-adv-x="1028" d="M14 1300q0 28 26 40q14 12 104 42t102 36h10q20 0 26 -30q2 -6 2 -8l364 -580q6 6 24 48q86 198 250 570q4 18 2 42q-10 66 28 84h4l6 2q28 0 28 -26v-12q-4 -40 -110 -334t-168 -444l-20 -56l-4 -70q158 -10 184 -52l-18 -16h-170l-4 -68h28q106 0 142 -22 q-18 -32 -172 -46l-20 -414q-14 -50 -26 -50q-16 0 -33 117t-25 339q-68 -4 -96 -4h-52q-38 0 -38 42q0 30 20 36l24 2h64h76v34q0 24 2 34h-142q-14 0 -36 16t-22 32q0 28 46 28h58q62 0 100 -2l6 74l-358 638h-8l-12 2q-34 0 -95 -12t-97 -12z" />
<glyph unicode="&#xa6;" horiz-adv-x="196" d="M46 862q0 4 28 612q20 18 43 18t33 -18v-50l2 -148v-228q0 -38 -4 -178zM62 -66q0 528 6 798l86 4q-16 -552 -16 -603t2 -177q-26 -22 -78 -22z" />
<glyph unicode="&#xa7;" horiz-adv-x="846" d="M100 850q0 122 168 204q96 48 160 48q224 0 224 -200v-14l-6 -10q-40 -10 -48 -10q2 18 2 32q0 82 -70 116q-42 22 -91 22t-107 -22q-112 -40 -172 -136q-4 -14 -4 -26q0 -44 51 -81t161 -75q100 46 182 46t139 -51t57 -159v-14q16 -18 16 -53t-52 -109q32 -38 32 -94 t-66 -136q-92 -114 -226 -162q-50 -18 -88 -18q-68 0 -92 58q-10 26 -10 59t6 69q8 10 27 18t21 12q-16 -46 -16 -78q0 -70 82 -70t185 76t103 148q0 26 -12 46q-462 48 -462 220q0 74 98 146q-192 86 -192 198zM258 520q12 -34 34 -62q4 4 4 2q154 -76 258 -76q52 0 92 20 q58 36 58 94q0 22 -8 46q-26 94 -128 124q-28 8 -58 8q-72 0 -142 -54q-68 -36 -110 -102z" />
<glyph unicode="&#xa8;" horiz-adv-x="606" d="M112 1150q0 36 44 52q14 0 36 -21t22 -39q-12 -46 -44 -46q-8 0 -16 4q-42 14 -42 50zM360 1150q0 36 44 52q14 0 35 -21t21 -39q-12 -46 -42 -46q-8 0 -18 4q-40 14 -40 50z" />
<glyph unicode="&#xa9;" horiz-adv-x="1046" d="M54 360q0 18 2 36q0 200 131 319t322 119t324 -99t133 -247q0 -208 -151 -349t-363 -141q-164 0 -281 113t-117 249zM88 405q0 -159 125 -259t267 -100q100 0 259 115t165 225q-332 -190 -518 -190q-108 0 -158 66q-34 46 -34 106t28 130q56 136 162 190q46 22 90 22 q94 0 176 -108v-6q-2 -4 -18 -20l-18 -18q-40 90 -117 90t-151 -76q-104 -106 -104 -242q22 -46 95 -46t153 21t322 105q74 26 100 28q2 24 2 46q0 156 -144 228q-70 34 -238 60q-182 0 -313 -104t-131 -263z" />
<glyph unicode="&#xaa;" horiz-adv-x="518" d="M58 570q0 22 8 52q30 90 110 142q42 26 74 26t58 -18q-34 -78 -34 -130t24 -95t94 -43q30 4 45 14t31 31t32 35h6q-6 -60 -40 -82t-90 -22q-126 0 -134 114q-6 -28 -45 -66t-71 -38h-6q-62 20 -62 80zM88 578q0 -56 36 -56q44 0 87 75t49 131q-12 26 -32 26t-42 -14 q-72 -46 -98 -162z" />
<glyph unicode="&#xab;" horiz-adv-x="984" d="M116 500v6q0 12 16 18q232 100 430 230q18 12 28 10q36 -2 41 -17t-13 -33q-238 -148 -398 -214l342 -396q2 -4 -4 -17t-12 -19h-14q-36 0 -62 66q-150 178 -216 244t-138 122zM400 486v6q0 14 14 20q232 100 432 230q14 12 25 11t15 -1h2q30 -22 30 -26t-6 -13t-10 -11 q-202 -134 -398 -216l342 -394q2 -4 -4 -17t-12 -19h-12q-26 0 -36 13t-18 31l-10 20q-16 24 -124 142t-112 124q-10 6 -59 48t-59 52z" />
<glyph unicode="&#xac;" horiz-adv-x="812" d="M80 654q0 34 13 38t20 5t23 0t34 1t224 10t229 11t37 3h4q32 0 33 -6t2 -9t1 -7v-8q4 -10 28 -200q22 -194 30 -202v-2q0 -14 -33 -14t-33 16l-50 354l-542 -22q-20 -2 -20 32z" />
<glyph unicode="&#xad;" horiz-adv-x="674" d="M102 420l2 20q10 32 30 32q6 0 26 -6t30 -8q296 -84 372 -90l10 -4q24 -8 24 -28q0 -44 -40 -44q-6 0 -12 2l-428 106q-14 4 -14 20z" />
<glyph unicode="&#xae;" horiz-adv-x="998" d="M54 360q0 18 2 36q0 210 133 362t327 152t322 -115t128 -302t-128 -332t-386 -163q-164 0 -281 113t-117 249zM104 396q0 -144 115 -237t257 -93q266 0 376 188q-34 -30 -85 -57t-64 -27h-19q-36 0 -65 46t-46 107t-51 113t-82 52q-12 -242 -40 -292q-14 -22 -17 -26 t-22 -10t-21 -7t-4 -1q-72 0 -72 88q0 80 52 208t94 208q-4 38 -10 36l-16 -18q-6 -6 -22 -10l-6 46l28 20q28 20 36 20t13 -7t9 -19l5 -15t5 -35t4 -38q4 14 62 68t94 72t64 18q62 0 62 -82q0 -60 -52 -138t-130 -78h-12q22 -20 49 -84t56 -112t61 -48t85 13t77 29 q38 76 38 160q0 110 -44 204t-124 142t-172 48q-16 0 -30 -2q-174 0 -305 -134t-131 -316zM320 206q4 -18 10 -18q12 0 43 98t31 204v12q-32 -38 -58 -138t-26 -158zM440 532q18 -6 36 -6q64 0 130 78t66 108t-14 30q-20 0 -53 -28t-70 -53t-54 -38t-31 -38t-10 -53z" />
<glyph unicode="&#xb0;" horiz-adv-x="270" d="M43 686q1 38 30 61t79 23q92 0 92 -78q0 -42 -31 -66t-74 -24t-70 23t-26 61zM68 678q0 -54 76 -54q24 0 49 14t25 38l2 26q0 18 -10 26q-18 12 -26 14t-12 2q-8 4 -18 4q-86 0 -86 -70z" />
<glyph unicode="&#xb1;" horiz-adv-x="784" d="M16 602h314l-14 274q0 32 44 32t44 -40v-244l48 -4q264 36 282 40q14 18 14 -4q0 -28 -76 -68t-260 -44v-280h12l276 12h12q30 0 30 -38q0 -20 -8 -28t-34 -10l-606 -20h-2q-20 0 -20 25t4 34t13 12t16 4t22 0t46 2t133 3h42v274l-256 -6q-40 2 -58 18t-18 56z" />
<glyph unicode="&#xb2;" horiz-adv-x="564" d="M344 442q30 98 73 152t63 78q36 40 120 124q28 28 44 75t16 74t-29 33t-57 -24t-49 -63t-33 -31t-6 30q30 70 76 111t86 41h8q40 -12 40 -57t-22 -103q-22 -80 -75 -138t-102 -104t-61 -96q24 -6 70 -34t72 -34q16 -10 40 -4t34 44q12 26 1 62t-6 49t8 19t9 2l42 -38 q2 -2 2 -8l-22 -108q-20 -50 -52 -66t-49 -16t-34 3t-55 33t-55 34t-49 -20t-48 -20z" />
<glyph unicode="&#xb3;" horiz-adv-x="474" d="M342 628q0 88 70 140q14 -6 9 -20t-21 -36q-22 -34 -22 -60t15 -53t32 -28t27 -1l88 30q54 34 78 116q8 24 8 48t-16 58q-20 48 -78 46q-18 -2 -30 0q-14 4 -8 20q4 18 34 27t64 25t44 52q0 12 -4 12t-26 7t-34 11t-49 -1t-49 -3q-16 8 -4 46q4 10 26 10l74 -10 q10 -4 51 -14t49 -12q2 4 10 6q14 4 14 -8t-26 -54t-41 -57t-15 -17l-2 -2v-8q46 -60 46 -128q0 -26 -6 -52q-24 -108 -89 -151t-119 -43q-16 0 -32 4q-34 14 -51 45t-17 55z" />
<glyph unicode="&#xb4;" horiz-adv-x="332" d="M76 977q0 11 7 24t36 50t43 71q52 106 106 106q22 0 22 -33t-37 -91t-73 -93t-94 -49q-10 4 -10 15z" />
<glyph unicode="&#xb5;" horiz-adv-x="758" d="M138 572v108q10 24 25 24t32 -32t49 -96q98 -214 174 -278q54 -46 84 -46t40 2q24 4 24 44q-60 294 -60 364t34 70q8 0 16 -2q88 -244 88 -380q0 -66 -24 -101t-50 -43t-60 -7t-65 8t-53 15t-44 28t-35 33t-30 43t-24 44t-24 50t-23 48q18 -220 18 -353t-12 -167t-18 -34 q-10 0 -22 52q-40 170 -40 606z" />
<glyph unicode="&#xb6;" horiz-adv-x="802" d="M26 734q0 114 63 182t176 68t201 -76q42 0 117 15t117 15t48 -20v-24l2 -34q2 -10 2 -32v-26q0 -108 12 -320t12 -354t-33 -142t-61 104q-10 38 -2 42q0 118 -16 351t-16 353q-66 -26 -124 -28q6 -60 25 -341t29 -333v-56q0 -34 -24 -73t-33 -39t-11 30l-48 552l-18 18 q-44 -22 -54 -26t-27 -11t-24 -8t-21 -5q-24 -4 -54 -4q-238 0 -238 222z" />
<glyph unicode="&#xb7;" horiz-adv-x="246" d="M94 500q0 36 42 50q16 0 37 -20t21 -38q-16 -48 -44 -48q-10 0 -20 6q-36 14 -36 50z" />
<glyph unicode="&#xb8;" horiz-adv-x="776" d="M198 -392q0 82 66 82q30 0 30 -16v-2q0 -2 -2 -4l-52 -54q-2 -2 -2 -19t24 -37t52 -20q86 0 164 46t78 126q0 154 -174 154l-132 -20h-22q0 38 -13 85t-13 73t13 33t19 7q16 0 25 -25t9 -51t-8 -58q0 -8 8 -8h14l116 10q92 0 151 -53t59 -148t-92 -155t-192 -60h-64 q-62 32 -62 114z" />
<glyph unicode="&#xb9;" horiz-adv-x="238" d="M288 592l90 282q4 6 11 36t7 36l-72 -20h-10q14 38 63 61t61 29h4q6 -2 6 -30q-78 -228 -122 -402q-6 -4 -18 -10t-16 -10q-4 6 -4 28z" />
<glyph unicode="&#xba;" horiz-adv-x="536" d="M62 950q0 76 54 171t124 95q32 0 40 -30q-74 -30 -127 -95t-53 -154t52 -89q86 0 128 70q-12 24 -12 104t25 167t81 87q42 0 56 -30l4 -60q0 -62 -14 -106t-52 -118h28q72 0 224 88l10 -14q-126 -122 -298 -132l-116 -86q-14 -14 -69 -14t-70 35t-15 111zM306 1033 q0 -53 12 -57q38 26 58 81t20 112t-14 61q-36 -28 -56 -86t-20 -111z" />
<glyph unicode="&#xbb;" horiz-adv-x="1016" d="M58 772q0 6 30 24h2l4 2q14 0 38 -14q198 -124 434 -224q18 -6 18 -18v-6q-12 -8 -63 -50t-59 -48q-16 -20 -119 -131t-112 -123t-17 -26t-14 -22q-12 -22 -40 -22h-12q-22 18 -16 38l344 384q-182 74 -402 212q-4 2 -10 10t-6 14zM390 809q0 7 32 27h6q22 0 36 -12 q222 -138 438 -224q14 -6 14 -18v-8q-100 -78 -120 -98q-132 -140 -240 -260q0 -2 -4 -9t-5 -10t-5 -10t-7 -11t-8 -9t-9 -7q-10 -8 -24 -8h-14q-6 6 -12 20t-4 16l348 386q-184 72 -406 212q-16 16 -16 23z" />
<glyph unicode="&#xbc;" horiz-adv-x="1268" d="M330 240l18 34q118 170 716 838l6 2l12 2l22 2q22 0 22 -22q0 -6 -1 -14t-19 -32t-26 -30q-420 -384 -704 -814q0 -4 -2 -4q-20 -6 -31 7t-13 31zM366 526l128 388q4 6 14 49t10 49l-102 -28h-14q20 54 114 92q44 20 62 32h4q10 -2 10 -42q-112 -324 -174 -552 q-6 -6 -24 -16t-22 -14q-6 8 -6 42zM756 338q0 6 1 13t80 94t87 87q16 -4 10 -18q-8 -14 -14 -14l-88 -114l-2 -10l116 -42q4 0 26 -4l8 6q0 12 12 36q32 106 36 138q14 14 18 14h2q14 -14 8 -20l-38 -158q-2 -18 9 -21t25 14t20 35q12 -4 12 -16t-6 -26q-12 -44 -72 -44 q-14 -28 -14 -42q-22 -50 -48 -190q6 -2 0 -22q-10 -24 -28 -24h-2q-12 0 -12 12l62 266q0 2 -22 8q-30 10 -98 36q-28 6 -45 6t-39 -8q-4 2 -4 8z" />
<glyph unicode="&#xbd;" horiz-adv-x="1208" d="M286 434l122 408l22 104l-96 -30h-14q20 58 106 98q42 20 60 34l2 -2q0 2 5 1t5 -43q-122 -412 -162 -582q-6 -8 -23 -18t-21 -14q-6 14 -6 44zM294 158l18 34q118 170 716 838l6 2l12 2l22 2q28 0 20 -34q0 -10 -18 -34t-26 -30q-420 -384 -704 -814q0 -4 -2 -4 q-20 -6 -31 7t-13 31zM842 30q26 104 65 164t51 77t56 72t58 71t25 65t11 79t-23 35t-47 -26t-42 -66t-26 -33q-12 4 -6 30q20 74 62 117t76 43h6q32 -10 32 -58t-16 -110q-26 -104 -108 -201t-96 -151q20 -8 59 -36t52 -32t26 -6t19 -1t15 12t13 33q6 14 6 31t-6 45t-3 41 t6 19t7 2l38 -38l-18 -122q-30 -86 -94 -86q-8 0 -22 3t-45 35t-47 37t-44 -21t-40 -24z" />
<glyph unicode="&#xbe;" horiz-adv-x="1320" d="M286 524q0 30 10 60q20 78 78 118l2 -4q14 -2 8 -22t-25 -49t-24 -44t-5 -38t18 -58t48 -35q10 -2 20 -2q54 0 115 40t89 144q6 28 6 60t-16 76q-22 62 -94 56q-24 -2 -34 2q-18 4 -12 25t43 33t77 33t52 67q0 14 -6 14q-38 8 -60 20q-14 4 -32 4t-50 -4t-48 -2 q-20 8 -4 58q14 14 32 14q54 0 82 -12t126 -34q2 4 12 7t14 1q8 -18 -7 -44t-31 -50t-30 -44t-16 -24q-12 -8 -12 -10v-4l-2 -4v-6q58 -76 58 -158q0 -34 -10 -70q-28 -138 -118 -200q-66 -46 -126 -46q-22 0 -52 10t-53 51t-23 71zM458 200l18 34q118 170 716 838l6 2l12 2 l22 2q22 0 22 -22q0 -6 -1 -14t-19 -32t-26 -30q-420 -384 -704 -814q0 -4 -2 -4q-20 -6 -31 7t-13 31zM796 354q0 6 2 14t93 119t101 111q16 -4 11 -23t-17 -19l-100 -144l-4 -12q26 -6 72 -28t92 -30l10 8q0 8 10 38t20 64q24 76 26 116q14 20 20 20q6 -6 10 -15t2 -11 l-44 -200q-8 -22 8 -26t33 19t21 43q14 -4 14 -20t-6 -34q-22 -56 -84 -56q-16 -40 -16 -52q-18 -50 -56 -242q6 -2 0 -28q-14 -30 -32 -30h-2q-16 0 -14 14l70 338q4 4 -138 56l-22 6q-12 2 -30 2t-44 -10q-6 6 -6 12z" />
<glyph unicode="&#xbf;" horiz-adv-x="746" d="M514 1148q0 24 22 24q2 0 14 -12l18 -20l2 -4q10 -42 -10 -50q-14 -2 -22 8t-14 32q-10 10 -10 22zM524 241q0 31 10 53q22 48 30 -2q6 -30 8 -61t10 -49q38 -90 104 -139t116 -49q110 0 110 176q0 118 -70 246q-52 96 -204 170q2 10 -31 134t-33 150t10 26t40 -34 q22 -152 37 -189t15 -41q88 -66 120 -92t79 -94t69 -158q24 -76 24 -133t-12 -99q-32 -102 -120 -126q-12 -2 -26 -2q-62 0 -155 66t-119 176q-12 40 -12 71z" />
<glyph unicode="&#xc0;" horiz-adv-x="1348" d="M16 86q0 16 20 28q20 -4 61 -4t118 43t157 143q130 160 242 362q-8 2 -38 25t-37 30t-43 41t-64 62q-76 72 -84 108q0 26 17 32t37 6h24q62 0 180 -38t178 -38q48 58 139 285t135 287q48 86 66 86q10 0 10 -28v-22l46 -836h20q126 60 158 60t32 -16q0 -24 -64 -65 t-126 -53q-2 -20 -2 -89t34 -351t35 -311t-3 -29q-20 0 -34 -12q-34 128 -56 374t-54 372q-56 4 -217 43t-231 39q-50 -56 -240 -346q-56 -84 -137 -151t-159 -67h-4l-96 2q-20 12 -20 28zM448 886q0 -44 91 -110t133 -66q10 0 18 4q12 14 24 48t32 66q-16 8 -246 76 q-12 2 -22 2q-30 0 -30 -20zM726 676q54 -14 150 -28t122 -22q-76 106 -198 164q-2 -4 -20 -30q-38 -48 -54 -84zM850 848l258 -210q2 40 2 123t-8 289t-20 318zM992 1853q0 29 23 29t49 -35t40 -65t39 -62t31 -46t6 -18q0 -16 -10 -20q-14 2 -26 8t-21 10t-19 14l-16 16 q-6 6 -18 21t-15 18t-15 22t-30 49t-18 59z" />
<glyph unicode="&#xc1;" horiz-adv-x="1348" d="M16 86q0 16 20 28q20 -4 61 -4t118 43t157 143q130 160 242 362q-8 2 -38 25t-37 30t-43 41t-64 62q-76 72 -84 108q0 26 17 32t37 6h24q62 0 180 -38t178 -38q48 58 139 285t135 287q48 86 66 86q10 0 10 -28v-22l46 -836h20q126 60 158 60t32 -16q0 -24 -64 -65 t-126 -53q-2 -20 -2 -89t34 -351t35 -311t-3 -29q-20 0 -34 -12q-34 128 -56 374t-54 372q-56 4 -217 43t-231 39q-50 -56 -240 -346q-56 -84 -137 -151t-159 -67h-4l-96 2q-20 12 -20 28zM448 886q0 -44 91 -110t133 -66q10 0 18 4q12 14 24 48t32 66q-16 8 -246 76 q-12 2 -22 2q-30 0 -30 -20zM726 676q54 -14 150 -28t122 -22q-76 106 -198 164q-2 -4 -20 -30q-38 -48 -54 -84zM850 848l258 -210q2 40 2 123t-8 289t-20 318zM1054 1661q0 11 7 24t36 50t43 71q52 106 106 106q22 0 22 -33t-37 -91t-73 -93t-94 -49q-10 4 -10 15z" />
<glyph unicode="&#xc2;" horiz-adv-x="1348" d="M16 86q0 16 20 28q20 -4 61 -4t118 43t157 143q130 160 242 362q-8 2 -38 25t-37 30t-43 41t-64 62q-76 72 -84 108q0 26 17 32t37 6h24q62 0 180 -38t178 -38q48 58 139 285t135 287q48 86 66 86q10 0 10 -28v-22l46 -836h20q126 60 158 60t32 -16q0 -24 -64 -65 t-126 -53q-2 -20 -2 -89t34 -351t35 -311t-3 -29q-20 0 -34 -12q-34 128 -56 374t-54 372q-56 4 -217 43t-231 39q-50 -56 -240 -346q-56 -84 -137 -151t-159 -67h-4l-96 2q-20 12 -20 28zM448 886q0 -44 91 -110t133 -66q10 0 18 4q12 14 24 48t32 66q-16 8 -246 76 q-12 2 -22 2q-30 0 -30 -20zM726 676q54 -14 150 -28t122 -22q-76 106 -198 164q-2 -4 -20 -30q-38 -48 -54 -84zM850 848l258 -210q2 40 2 123t-8 289t-20 318zM918 1618q24 58 108 175t144 161q2 -2 6 -2h6q0 -62 25 -122t47 -106l34 -70q18 -32 18 -36v-2l2 -4 q0 -10 -11 -19t-24 -9t-19 12q-20 40 -84 200l-32 48q-30 -18 -67 -79t-71 -110t-64 -49q-12 0 -18 12z" />
<glyph unicode="&#xc3;" horiz-adv-x="1348" d="M16 86q0 16 20 28q20 -4 61 -4t118 43t157 143q130 160 242 362q-8 2 -38 25t-37 30t-43 41t-64 62q-76 72 -84 108q0 26 17 32t37 6h24q62 0 180 -38t178 -38q48 58 139 285t135 287q48 86 66 86q10 0 10 -28v-22l46 -836h20q126 60 158 60t32 -16q0 -24 -64 -65 t-126 -53q-2 -20 -2 -89t34 -351t35 -311t-3 -29q-20 0 -34 -12q-34 128 -56 374t-54 372q-56 4 -217 43t-231 39q-50 -56 -240 -346q-56 -84 -137 -151t-159 -67h-4l-96 2q-20 12 -20 28zM448 886q0 -44 91 -110t133 -66q10 0 18 4q12 14 24 48t32 66q-16 8 -246 76 q-12 2 -22 2q-30 0 -30 -20zM726 676q54 -14 150 -28t122 -22q-76 106 -198 164q-2 -4 -20 -30q-38 -48 -54 -84zM810 1730v12q0 74 43 101t67 27t40 -6q46 0 122 -44t126 -44h40t32 1t21 4t17 8t16 13t10 18q10 16 10 69t-15 77t-59 24q0 32 45 32t67 -38t22 -92 q0 -108 -55 -148t-151 -40q-54 0 -136 52t-127 52t-113 -78h-22zM850 848l258 -210q2 40 2 123t-8 289t-20 318z" />
<glyph unicode="&#xc4;" horiz-adv-x="1348" d="M16 86q0 16 20 28q20 -4 61 -4t118 43t157 143q130 160 242 362q-8 2 -38 25t-37 30t-43 41t-64 62q-76 72 -84 108q0 26 17 32t37 6h24q62 0 180 -38t178 -38q48 58 139 285t135 287q48 86 66 86q10 0 10 -28v-22l46 -836h20q126 60 158 60t32 -16q0 -24 -64 -65 t-126 -53q-2 -20 -2 -89t34 -351t35 -311t-3 -29q-20 0 -34 -12q-34 128 -56 374t-54 372q-56 4 -217 43t-231 39q-50 -56 -240 -346q-56 -84 -137 -151t-159 -67h-4l-96 2q-20 12 -20 28zM448 886q0 -44 91 -110t133 -66q10 0 18 4q12 14 24 48t32 66q-16 8 -246 76 q-12 2 -22 2q-30 0 -30 -20zM726 676q54 -14 150 -28t122 -22q-76 106 -198 164q-2 -4 -20 -30q-38 -48 -54 -84zM850 848l258 -210q2 40 2 123t-8 289t-20 318zM972 1782q0 36 44 52q14 0 36 -21t22 -39q-12 -46 -44 -46q-8 0 -16 4q-42 14 -42 50zM1220 1782q0 36 44 52 q14 0 35 -21t21 -39q-12 -46 -42 -46q-8 0 -18 4q-40 14 -40 50z" />
<glyph unicode="&#xc5;" horiz-adv-x="1348" d="M16 86q0 16 20 28q20 -4 61 -4t118 43t157 143q130 160 242 362q-8 2 -38 25t-37 30t-43 41t-64 62q-76 72 -84 108q0 38 48 38h30q62 0 180 -38t178 -38q48 58 139 285t135 287q30 50 40 62h-10q-48 0 -79 36t-31 80v12q0 64 36 102t92 38q122 0 122 -110 q0 -70 -34 -105t-58 -43v-12q-2 -10 -2 -24l46 -836h20q126 60 158 60t32 -16q0 -24 -64 -65t-126 -53q-2 -20 -2 -89t34 -351t35 -311t-3 -29q-20 0 -34 -12q-34 128 -56 374t-54 372q-56 4 -217 43t-231 39q-50 -56 -240 -346q-56 -84 -137 -151t-159 -67h-4h-20l-56 2 h-20q-20 12 -20 28zM448 886q0 -44 91 -110t133 -66q10 0 18 4q12 14 24 48t32 66q-16 8 -246 76q-12 2 -22 2q-30 0 -30 -20zM726 676q54 -14 150 -28t122 -22q-76 106 -198 164q-2 -4 -20 -30q-38 -48 -54 -84zM850 848l258 -210q2 40 2 123t-8 289t-20 318zM998 1650 q0 -50 31 -75t65 -25t71 26t37 60q4 16 4 30t-1 24t-6 19t-9 15t-12 11t-13 7t-15 5t-13 4t-23 5q-50 0 -83 -28t-33 -78z" />
<glyph unicode="&#xc6;" horiz-adv-x="2144" d="M16 86q0 16 20 28q20 -4 61 -4t118 43t157 143q130 160 242 362q-8 2 -38 25t-37 30t-43 41t-64 62q-76 72 -84 108q0 38 48 38h30q62 0 180 -38t178 -38q48 58 139 285t135 287q48 86 66 86q10 0 10 -28v-22l46 -836h20q130 32 210 44q-2 16 -11 72t-9 90q0 88 54 217 t147 233t179 104t139 -62t53 -142q0 -2 1 -16t0 -22t-3 -20q-8 -22 -30 -22h-10q0 2 -8 39t-17 62t-23 57q-30 70 -82 70q-132 0 -237 -171t-105 -313q0 -30 18 -142h18q50 0 158 41t166 41h42q112 0 112 -67t-62 -111q-106 -74 -262 -74q-40 0 -95 29t-85 29h-10 q-192 -144 -192 -362q0 -100 44 -153t148 -91q54 -10 115 -10t148 25t223 105t186 100q18 -32 18 -49t-18 -29q-442 -218 -578 -218q-88 0 -170 38t-134 104q44 -280 25 -280t-33 -12q-34 128 -56 374t-54 372q-56 4 -217 43t-231 39q-50 -56 -240 -346q-56 -84 -137 -151 t-159 -67h-4h-20l-56 2h-20q-20 12 -20 28zM448 886q0 -44 91 -110t133 -66q10 0 18 4q12 14 24 48t32 66q-16 8 -246 76q-12 2 -22 2q-30 0 -30 -20zM726 676q54 -14 150 -28t122 -22q-76 106 -198 164q-2 -4 -20 -30q-38 -48 -54 -84zM850 848l258 -210q2 40 2 123t-8 289 t-20 318zM1194 503q0 -51 8 -127q40 114 156 248q-86 -32 -158 -40q-6 -30 -6 -81zM1542 672q0 -50 114 -50q66 0 140 25t106 71q-24 40 -83 40t-168 -25t-109 -61z" />
<glyph unicode="&#xc7;" horiz-adv-x="878" d="M38 454q0 90 46 278q66 274 203 516t279 268q42 0 72 -30t49 -52t40 -87t21 -107t-2 -68q0 -20 -28 -20h-6q-2 0 -2 2q-12 174 -54 234q-38 52 -100 54q-82 0 -193 -192t-186 -413t-75 -346t76 -270t214 -145t269 144t161 292q22 -6 22 -36q0 -96 -120 -258 q-84 -114 -188 -174q-58 -38 -128 -44q2 -8 2 -27t-6 -55q0 -8 8 -8h14l116 10q92 0 151 -53t59 -146t-92 -155t-192 -62h-64q-62 36 -62 117t66 81q30 0 30 -18q0 -2 -2 -4l-52 -54q-2 -2 -2 -20t24 -38t52 -20q84 0 163 46t79 126q0 156 -174 156l-132 -22h-22 q0 38 -20 108q-4 32 -4 40q-44 6 -82 26q-78 48 -136 126t-75 144t-17 156z" />
<glyph unicode="&#xc8;" horiz-adv-x="944" d="M26 314q0 76 42 162t78 132t108 130v8l-20 176q0 88 54 217t147 233t179 104t138 -61t52 -143q0 -2 1 -16t0 -22t-3 -18q-4 -24 -28 -24h-10q-24 142 -72 198q-26 28 -56 28q-134 0 -239 -170t-105 -312q0 -56 20 -144h18q48 0 157 40t165 40h38q114 0 114 -65t-62 -111 q-104 -74 -260 -74q-38 0 -94 30t-86 30h-10q-192 -146 -192 -362q0 -100 44 -154t148 -90q40 -12 74 -12t82 6t97 18t113 42t107 55t101 59t98 52q18 -40 18 -55t-18 -23q-446 -218 -583 -218t-246 88t-109 226zM386 728q0 -48 114 -48q70 0 142 24t104 72q-28 40 -84 40 t-166 -26t-110 -62zM454 1753q0 29 23 29t48 -34t40 -65t40 -63t31 -46t6 -18q0 -16 -10 -20q-14 2 -26 8t-21 10t-21 14l-16 16q-4 6 -16 21t-15 18t-15 22t-30 49t-18 59z" />
<glyph unicode="&#xc9;" horiz-adv-x="944" d="M26 314q0 76 42 162t78 132t108 130v8l-20 176q0 88 54 217t147 233t179 104t138 -61t52 -143q0 -2 1 -16t0 -22t-3 -18q-4 -24 -28 -24h-10q-24 142 -72 198q-26 28 -56 28q-134 0 -239 -170t-105 -312q0 -56 20 -144h18q48 0 157 40t165 40h38q114 0 114 -65t-62 -111 q-104 -74 -260 -74q-38 0 -94 30t-86 30h-10q-192 -146 -192 -362q0 -100 44 -154t148 -90q40 -12 74 -12t82 6t97 18t113 42t107 55t101 59t98 52q18 -40 18 -55t-18 -23q-446 -218 -583 -218t-246 88t-109 226zM386 728q0 -48 114 -48q70 0 142 24t104 72q-28 40 -84 40 t-166 -26t-110 -62zM500 1567q0 11 7 24t36 50t43 71q52 106 106 106q22 0 22 -33t-37 -91t-73 -93t-94 -49q-10 4 -10 15z" />
<glyph unicode="&#xca;" horiz-adv-x="944" d="M26 314q0 76 42 162t78 132t108 130v8l-20 176q0 88 54 217t147 233t179 104t138 -61t52 -143q0 -2 1 -16t0 -22t-3 -18q-4 -24 -28 -24h-10q-24 142 -72 198q-26 28 -56 28q-134 0 -239 -170t-105 -312q0 -56 20 -144h18q48 0 157 40t165 40h38q114 0 114 -65t-62 -111 q-104 -74 -260 -74q-38 0 -94 30t-86 30h-10q-192 -146 -192 -362q0 -100 44 -154t148 -90q40 -12 74 -12t82 6t97 18t113 42t107 55t101 59t98 52q18 -40 18 -55t-18 -23q-446 -218 -583 -218t-246 88t-109 226zM386 728q0 -48 114 -48q70 0 142 24t104 72q-28 40 -84 40 t-166 -26t-110 -62zM426 1572q24 58 108 175t144 161q2 -2 6 -2h6q0 -62 25 -122t47 -106l34 -70q18 -32 18 -36v-2l2 -4q0 -10 -11 -19t-24 -9t-19 12q-20 40 -84 200l-32 48q-30 -18 -67 -79t-71 -110t-64 -49q-12 0 -18 12z" />
<glyph unicode="&#xcb;" horiz-adv-x="944" d="M26 314q0 76 42 162t78 132t108 130v8l-20 176q0 88 54 217t147 233t179 104t138 -61t52 -143q0 -2 1 -16t0 -22t-3 -18q-4 -24 -28 -24h-10q-24 142 -72 198q-26 28 -56 28q-134 0 -239 -170t-105 -312q0 -56 20 -144h18q48 0 157 40t165 40h38q114 0 114 -65t-62 -111 q-104 -74 -260 -74q-38 0 -94 30t-86 30h-10q-192 -146 -192 -362q0 -100 44 -154t148 -90q40 -12 74 -12t82 6t97 18t113 42t107 55t101 59t98 52q18 -40 18 -55t-18 -23q-446 -218 -583 -218t-246 88t-109 226zM386 728q0 -48 114 -48q70 0 142 24t104 72q-28 40 -84 40 t-166 -26t-110 -62zM450 1590q0 36 44 52q14 0 36 -21t22 -39q-12 -46 -44 -46q-8 0 -16 4q-42 14 -42 50zM698 1590q0 36 44 52q14 0 35 -21t21 -39q-12 -46 -42 -46q-8 0 -18 4q-40 14 -40 50z" />
<glyph unicode="&#xcc;" horiz-adv-x="1094" d="M40 46q0 34 30 34q18 0 52 -11t60 -11q138 0 278 75t249 198t195 270t133 300t47 287t-60 203t-194 69q-76 0 -139 -79t-92 -173t-29 -164q0 -212 190 -268l-38 -16q-4 -4 -49 18t-65 38q-98 60 -98 232q0 90 35 195t111 189t170 84q296 0 296 -349t-212 -657t-528 -470 q-112 -58 -216 -58q-40 0 -83 15t-43 49zM630 1789q0 29 23 29t48 -34t40 -65t40 -63t31 -46t6 -18q0 -16 -10 -20q-14 2 -26 8t-21 10t-21 14l-16 16q-4 6 -16 21t-15 18t-15 22t-30 49t-18 59z" />
<glyph unicode="&#xcd;" horiz-adv-x="1094" d="M26 62q0 34 30 34q20 0 54 -11t58 -11q138 0 278 75t249 198t195 270t133 300t47 287t-60 203t-194 69q-76 0 -139 -79t-92 -173t-29 -164q0 -212 190 -268l-38 -16q-4 -4 -49 18t-65 38q-98 60 -98 232q0 90 35 195t111 189t170 84q296 0 296 -349t-212 -657t-528 -470 q-112 -58 -216 -58q-40 0 -83 15t-43 49zM688 1593q0 11 7 24t36 50t43 71q52 106 106 106q22 0 22 -33t-37 -91t-73 -93t-94 -49q-10 4 -10 15z" />
<glyph unicode="&#xce;" horiz-adv-x="1094" d="M26 62q0 34 30 34q20 0 54 -11t58 -11q138 0 278 75t249 198t195 270t133 300t47 287t-60 203t-194 69q-76 0 -139 -79t-92 -173t-29 -164q0 -212 190 -268l-38 -16q-4 -4 -49 18t-65 38q-98 60 -98 232q0 90 35 195t111 189t170 84q296 0 296 -349t-212 -657t-528 -470 q-112 -58 -216 -58q-40 0 -83 15t-43 49zM630 1664q24 58 108 175t144 161q2 -2 6 -2h6q0 -62 25 -122t47 -106l34 -70q18 -32 18 -36v-2l2 -4q0 -10 -11 -19t-24 -9t-19 12q-20 40 -84 200l-32 48q-30 -18 -67 -79t-71 -110t-64 -49q-12 0 -18 12z" />
<glyph unicode="&#xcf;" horiz-adv-x="1094" d="M26 62q0 34 30 34q20 0 54 -11t58 -11q138 0 278 75t249 198t195 270t133 300t47 287t-60 203t-194 69q-76 0 -139 -79t-92 -173t-29 -164q0 -212 190 -268l-38 -16q-4 -4 -49 18t-65 38q-98 60 -98 232q0 90 35 195t111 189t170 84q296 0 296 -349t-212 -657t-528 -470 q-112 -58 -216 -58q-40 0 -83 15t-43 49zM590 1680q0 36 44 52q14 0 36 -21t22 -39q-12 -46 -44 -46q-8 0 -16 4q-42 14 -42 50zM838 1680q0 36 44 52q14 0 35 -21t21 -39q-12 -46 -42 -46q-8 0 -18 4q-40 14 -40 50z" />
<glyph unicode="&#xd0;" horiz-adv-x="1294" d="M10 562q0 26 4 35t13 12t16 4t23 0t35 1t83 2l64 490q6 70 10 94l6 58h44q0 -70 -30 -288t-46 -352l278 4h10q28 0 28 -29t-8 -37t-30 -8l-286 -6q-8 -44 -18 -139t-18 -147q76 76 135 76t110 -47t83 -102t87 -102t121 -47q108 0 235 117t209 271t82 260v10 q-88 -82 -172 -117t-195 -35t-188 41t-119 113q-84 138 -84 348q0 182 88 366q42 92 119 151t180 59t194 -68t143 -172q108 -216 108 -432v-36q0 -160 -65 -357t-184 -352t-275 -201q-38 -10 -76 -10q-122 0 -250 114q-8 10 -45 69t-68 82t-39 21q-46 -12 -78 -60t-46 -96 q-36 -130 -98 -130l16 96l58 454l-144 -2q-20 -2 -20 24zM548 1019q0 -183 84 -303t268 -120q24 -2 48 -2q202 0 280 184q38 92 38 197t-34 219q-66 232 -218 334q-60 40 -124 52q-88 0 -158 -57t-108 -145q-76 -176 -76 -359z" />
<glyph unicode="&#xd1;" horiz-adv-x="1262" d="M26 124q10 104 81 225t134 191t163 170q4 20 4 119t-40 277q-6 20 -38 20q-2 0 -18 -2q-140 -110 -268 -110q0 40 20 50q8 4 27 11t36 13t114 57t109 55l18 2q22 0 38 -17t20 -41l58 -394l678 658l38 -36l8 -116q0 -152 -43 -452t-43 -454l4 -208q40 -322 358 -322 q16 0 76 8t74 12q-38 -58 -198 -58t-245 79t-123 243l-2 236q0 138 30 408t30 406v124l-644 -606l-38 -304q-14 -122 -99 -250t-195 -128q-54 0 -90 38t-34 96zM100 133q0 -87 40 -87q70 0 126 65t86 159q58 192 58 326h-22q-4 0 -49 -46t-63 -68q-70 -70 -123 -166 t-53 -183zM448 1434v12q0 74 43 101t67 27t40 -6q46 0 122 -44t126 -44h41t31 1t21 4t17 8t16 13t10 18q10 16 10 69t-15 77t-59 24q0 32 45 32t67 -38t22 -92q0 -108 -55 -148t-151 -40q-54 0 -136 52t-127 52t-113 -78h-22z" />
<glyph unicode="&#xd2;" horiz-adv-x="1016" d="M46 578l2 158v40q0 34 36 264q14 78 48 160q60 152 144 152v-30q-176 -294 -176 -758q0 -172 32 -274t144 -196q24 -18 62 -18q188 0 333 173t187 373q-32 -2 -64 -2q-230 0 -337 113t-107 401q0 162 29 293t65 207t102 129t138 53t122 -37t82 -97q60 -108 86 -226 l2 -284l-22 -434v-20l134 58v-12q0 -14 -12 -21t-44 -23q-94 -48 -99 -57t-28 -88t-27 -85q-198 -472 -528 -472q-142 0 -208 102q-68 104 -80 200q-16 148 -16 258zM404 1091q0 -111 31 -204t107 -160t184 -67l54 -2q86 0 98 40q16 118 40 172v20l16 376q0 132 -30 248 q-58 224 -194 244q-10 2 -20 2q-58 0 -110 -53t-84 -139t-54 -188q-38 -178 -38 -289zM488 2071q0 29 23 29t48 -34t40 -65t40 -63t31 -45t6 -17q0 -16 -10 -22q-14 2 -26 8t-21 10t-19 16l-16 16q-6 4 -18 19t-15 18t-15 22t-30 49t-18 59z" />
<glyph unicode="&#xd3;" horiz-adv-x="1016" d="M46 578l2 158v40q0 34 36 264q14 78 48 160q60 152 144 152v-30q-176 -294 -176 -758q0 -172 32 -274t144 -196q24 -18 62 -18q188 0 333 173t187 373q-32 -2 -64 -2q-230 0 -337 113t-107 401q0 162 29 293t65 207t102 129t138 53t122 -37t82 -97q60 -108 86 -226 l2 -284l-22 -434v-20l134 58v-12q0 -14 -12 -21t-44 -23q-94 -48 -99 -57t-28 -88t-27 -85q-198 -472 -528 -472q-142 0 -208 102q-68 104 -80 200q-16 148 -16 258zM404 1091q0 -111 31 -204t107 -160t184 -67l54 -2q86 0 98 40q16 118 40 172v20l16 376q0 132 -30 248 q-58 224 -194 244q-10 2 -20 2q-58 0 -110 -53t-84 -139t-54 -188q-38 -178 -38 -289zM414 1831q0 11 7 24t36 50t43 71q52 106 106 106q22 0 22 -33t-37 -91t-73 -93t-94 -49q-10 4 -10 15z" />
<glyph unicode="&#xd4;" horiz-adv-x="1016" d="M46 578l2 158v40q0 34 36 264q14 78 48 160q60 152 144 152v-30q-176 -294 -176 -758q0 -172 32 -274t144 -196q24 -18 62 -18q188 0 333 173t187 373q-32 -2 -64 -2q-230 0 -337 113t-107 401q0 162 29 293t65 207t102 129t138 53t122 -37t82 -97q60 -108 86 -226 l2 -284l-22 -434v-20l134 58v-12q0 -14 -12 -21t-44 -23q-94 -48 -99 -57t-28 -88t-27 -85q-198 -472 -528 -472q-142 0 -208 102q-68 104 -80 200q-16 148 -16 258zM372 1966q24 58 108 175t144 161q2 -2 6 -2h6q0 -62 25 -122t47 -106l32 -70q20 -32 20 -36v-2l2 -4 q0 -10 -11 -19t-24 -9t-19 12q-20 40 -84 200l-32 48q-30 -18 -67 -79t-71 -110t-64 -49q-12 0 -18 12zM404 1091q0 -111 31 -204t107 -160t184 -67l54 -2q86 0 98 40q16 118 40 172v20l16 376q0 132 -30 248q-58 224 -194 244q-10 2 -20 2q-58 0 -110 -53t-84 -139 t-54 -188q-38 -178 -38 -289z" />
<glyph unicode="&#xd5;" horiz-adv-x="1016" d="M46 578l2 158v40q0 34 36 264q14 78 48 160q60 152 144 152v-30q-176 -294 -176 -758q0 -172 32 -274t144 -196q24 -18 62 -18q188 0 333 173t187 373q-32 -2 -64 -2q-230 0 -337 113t-107 401q0 162 29 293t65 207t102 129t138 53t122 -37t82 -97q60 -108 86 -226 l2 -284l-22 -434v-20l134 58v-12q0 -14 -12 -21t-44 -23q-94 -48 -99 -57t-28 -88t-27 -85q-198 -472 -528 -472q-142 0 -208 102q-68 104 -80 200q-16 148 -16 258zM292 1892v12q0 74 43 101t67 27t40 -6q46 0 122 -44t126 -44h41t31 1t21 4t17 8t16 13t10 18q10 16 10 69 t-15 77t-59 24q0 32 45 32t67 -38t22 -92q0 -108 -55 -148t-151 -40q-54 0 -136 52t-127 52t-113 -78h-22zM404 1091q0 -111 31 -204t107 -160t184 -67l54 -2q86 0 98 40q16 118 40 172v20l16 376q0 132 -30 248q-58 224 -194 244q-10 2 -20 2q-58 0 -110 -53t-84 -139 t-54 -188q-38 -178 -38 -289z" />
<glyph unicode="&#xd6;" horiz-adv-x="1016" d="M46 578l2 158v40q0 34 36 264q14 78 48 160q60 152 144 152v-30q-176 -294 -176 -758q0 -172 32 -274t144 -196q24 -18 62 -18q188 0 333 173t187 373q-32 -2 -64 -2q-230 0 -337 113t-107 401q0 162 29 293t65 207t102 129t138 53t122 -37t82 -97q60 -108 86 -226 l2 -284l-22 -434v-20l134 58v-12q0 -14 -12 -21t-44 -23q-94 -48 -99 -57t-28 -88t-27 -85q-198 -472 -528 -472q-142 0 -208 102q-68 104 -80 200q-16 148 -16 258zM404 1091q0 -111 31 -204t107 -160t184 -67l54 -2q86 0 98 40q16 118 40 172v20l16 376q0 132 -30 248 q-58 224 -194 244q-10 2 -20 2q-58 0 -110 -53t-84 -139t-54 -188q-38 -178 -38 -289zM448 1998q0 36 44 52q14 0 36 -21t22 -39q-12 -46 -44 -46q-8 0 -16 4q-42 14 -42 50zM696 1998q0 36 44 52q14 0 35 -21t21 -39q-12 -46 -42 -46q-8 0 -18 4q-40 14 -40 50z" />
<glyph unicode="&#xd7;" horiz-adv-x="824" d="M204 218l168 232l-160 240q34 36 51 36t32 -15t29 -39q54 -98 92 -140q24 24 68 92q50 72 69 93t35 21t28 -18l-158 -282q72 -50 146 -66q12 -4 50 -11t46 -9q70 -12 70 -32q0 -32 -114 -32q-152 0 -236 94q-54 -64 -74 -98q-46 -82 -90 -82q-24 0 -52 16z" />
<glyph unicode="&#xd8;" horiz-adv-x="1016" d="M46 578v114l2 70v14q0 34 36 264q14 78 48 160q60 152 144 152v-30q-176 -294 -176 -758q0 -174 26 -254q76 180 258 550q-34 108 -34 227t7 196t29 176t58 175t102 129t143 53t139 -56q52 96 78 152l16 4q26 0 35 -31t5 -69q-4 -6 -16 -40q-32 -94 -40 -94l-8 -14 q50 -94 76 -212l2 -142v-142l-22 -434v-20l134 58v-12q0 -14 -12 -21t-44 -23q-94 -48 -99 -57t-28 -88t-27 -85q-198 -472 -528 -472q-138 0 -216 112l-50 -128q-4 -4 -6 -4h-2q-28 0 -28 102v6q0 14 40 116q-42 126 -42 356zM168 216q42 -68 108 -122q24 -18 62 -18 q188 0 333 173t187 373q-36 -2 -68 -2q-124 0 -219 34t-153 128q-172 -368 -250 -566zM404 1105q0 -97 18 -169q58 120 380 774q-50 50 -110 50t-112 -53t-84 -139t-54 -188q-38 -178 -38 -275zM452 850q82 -190 274 -190l54 -2q86 0 98 40q16 118 40 172v20l16 376 q0 228 -66 354q-234 -406 -416 -770z" />
<glyph unicode="&#xd9;" horiz-adv-x="1516" d="M36 1200l4 12q50 38 94 38q18 0 0 -38q16 -4 62 -4t138 42t140 42v-44l-154 -870v-28q0 -90 48 -182t135 -92t177 128t183 380t157 360l98 378q2 20 26 20q30 0 30 -46q0 -110 -49 -335t-49 -339q0 -510 340 -510q50 0 79 12t73 46q4 0 13 -8t9 -10q0 -96 -180 -96 q-116 0 -197 50t-119 130q-78 168 -78 354q0 16 2 74t2 150q-10 -42 -97 -244t-105 -241t-43 -83t-69 -106q-88 -122 -212 -122t-179 96t-55 228l4 74l116 700v76q-64 -40 -136 -40h-78t-47 1t-30 4t-25 7q-28 12 -28 36zM694 1645q0 29 23 29t48 -34t40 -65t40 -63t31 -46 t6 -18q0 -16 -10 -20q-14 2 -26 8t-21 10t-21 14l-16 16q-4 6 -16 21t-15 18t-15 22t-30 49t-18 59z" />
<glyph unicode="&#xda;" horiz-adv-x="1516" d="M36 1200l4 12q50 38 94 38q18 0 0 -38q16 -4 62 -4t138 42t140 42v-44l-154 -870v-28q0 -90 48 -182t135 -92t177 128t183 380t157 360l98 378q2 20 26 20q30 0 30 -46q0 -110 -49 -335t-49 -339q0 -510 340 -510q50 0 79 12t73 46q4 0 13 -8t9 -10q0 -96 -180 -96 q-116 0 -197 50t-119 130q-78 168 -78 354q0 16 2 74t2 150q-10 -42 -97 -244t-105 -241t-43 -83t-69 -106q-88 -122 -212 -122t-179 96t-55 228l4 74l116 700v76q-64 -40 -136 -40h-78t-47 1t-30 4t-25 7q-28 12 -28 36zM706 1463q0 11 7 24t36 50t43 71q52 106 106 106 q22 0 22 -33t-37 -91t-73 -93t-94 -49q-10 4 -10 15z" />
<glyph unicode="&#xdb;" horiz-adv-x="1516" d="M36 1200l4 12q50 38 94 38q18 0 0 -38q16 -4 62 -4t138 42t140 42v-44l-154 -870v-28q0 -90 48 -182t135 -92t177 128t183 380t157 360l98 378q2 20 26 20q30 0 30 -46q0 -110 -49 -335t-49 -339q0 -510 340 -510q50 0 79 12t73 46q4 0 13 -8t9 -10q0 -96 -180 -96 q-116 0 -197 50t-119 130q-78 168 -78 354q0 16 2 74t2 150q-10 -42 -97 -244t-105 -241t-43 -83t-69 -106q-88 -122 -212 -122t-179 96t-55 228l4 74l116 700v76q-64 -40 -136 -40h-78t-47 1t-30 4t-25 7q-28 12 -28 36zM592 1468q24 58 108 175t144 161q2 -2 6 -2h6 q0 -62 25 -122t47 -106l32 -70q20 -32 20 -36v-2l2 -4q0 -10 -11 -19t-24 -9t-19 12q-20 40 -84 200l-32 48q-30 -18 -67 -79t-71 -110t-64 -49q-12 0 -18 12z" />
<glyph unicode="&#xdc;" horiz-adv-x="1516" d="M36 1200l4 12q50 38 94 38q18 0 0 -38q16 -4 62 -4t138 42t140 42v-44l-154 -870v-28q0 -90 48 -182t135 -92t177 128t183 380t157 360l98 378q2 20 26 20q30 0 30 -46q0 -110 -49 -335t-49 -339q0 -510 340 -510q50 0 79 12t73 46q4 0 13 -8t9 -10q0 -96 -180 -96 q-116 0 -197 50t-119 130q-78 168 -78 354q0 16 2 74t2 150q-10 -42 -97 -244t-105 -241t-43 -83t-69 -106q-88 -122 -212 -122t-179 96t-55 228l4 74l116 700v76q-64 -40 -136 -40h-78t-47 1t-30 4t-25 7q-28 12 -28 36zM658 1514q0 36 44 52q14 0 36 -21t22 -39 q-12 -46 -44 -46q-8 0 -16 4q-42 14 -42 50zM906 1514q0 36 44 52q14 0 35 -21t21 -39q-12 -46 -42 -46q-8 0 -18 4q-40 14 -40 50z" />
<glyph unicode="&#xdd;" horiz-adv-x="1196" d="M68 -208q0 40 18 38q40 -4 102 -182q196 -380 368 -380q68 0 132 60q176 162 278 698q50 266 60 530q-56 -202 -174 -246q-28 -10 -54 -10q-78 0 -144 90q-112 152 -112 450q0 90 10 188q-22 -4 -109 -59t-113 -55q-32 0 -34 30q18 8 127 79t140 71t37 -13t8 -25 q6 -254 11 -368t49 -196t130 -110q90 20 145 93t76 175t31 203t20 208t30 161l40 -14q-22 -930 -188 -1498q-150 -516 -374 -516q-204 0 -448 426q-62 80 -62 172zM722 1345q0 11 7 24t36 50t43 71q52 106 106 106q22 0 22 -33t-37 -91t-73 -93t-94 -49q-10 4 -10 15z" />
<glyph unicode="&#xde;" horiz-adv-x="746" d="M50 -2q0 258 104 482q12 44 12 108t-6 143t-6 185q0 418 56 550h2q22 0 31 -132t9 -218q0 -296 -18 -352q64 104 158 176t190 92q88 -12 88 -110q0 -36 -12 -84q-44 -170 -166 -316t-214 -172l-18 -20q28 -220 28 -330t-29 -227t-107 -167l-8 2q-6 0 -24 11t-22 17 q0 30 -20 90q-28 140 -28 272zM100 0q0 -130 26 -226q2 -4 6 -22t6 -26q6 -24 28 -38q60 114 60 310q0 90 -11 215t-11 167v50q-104 -132 -104 -430zM268 520q0 -40 8 -78q90 12 212 181t122 273q0 54 -46 54q-14 0 -34 -6q-118 -24 -202 -196q-60 -122 -60 -228z" />
<glyph unicode="&#xdf;" horiz-adv-x="1882" d="M158 -430q64 0 74 -98q4 -36 36 -67t96 -31q22 68 86 350t129 549t168 531t207 350q128 170 252 282q232 210 420 210q68 0 105 -47t37 -131t-65 -169t-175 -167t-120 -92q92 -26 169 -62t101 -53t57 -47t49 -62q42 -84 42 -190t-94 -258t-238 -260t-274 -108 q-166 0 -302 130t-136 294l2 66q22 22 57 22t51 -24q4 -6 4 -12q0 -18 -44 -40q0 -148 112 -264t249 -116t265 94t209 233t81 251t-78 193t-182 119t-228 38t-192 32q-18 8 -18 16q0 26 202 26h58q366 250 400 434q0 56 -31 86t-85 30q-110 0 -284 -134q-10 -8 -48 -46 l-176 -180l-186 -272q-118 -218 -202 -467t-123 -446t-69 -368t-62 -277t-78 -130q-104 0 -166 87t-62 195z" />
<glyph unicode="&#xe0;" horiz-adv-x="802" d="M0 142q0 148 154 288q120 110 234 110q64 0 114 -32q-58 -148 -58 -276q0 -212 230 -212q58 8 87 24t63 55t66 65h10q-10 -112 -77 -151t-183 -39q-250 0 -270 210q-10 -52 -91 -121t-145 -69h-10q-124 34 -124 148zM62 152q0 -32 3 -51t20 -35t49 -16q88 4 177 141 t95 235q-32 40 -88 40q-72 0 -150 -92t-106 -222zM230 885q0 29 23 29t49 -35t40 -65t39 -62t31 -46t6 -18q0 -16 -10 -20q-14 2 -26 8t-21 10t-21 14l-16 16q-4 6 -16 21t-15 18t-15 22t-30 49t-18 59z" />
<glyph unicode="&#xe1;" horiz-adv-x="802" d="M0 142q0 148 154 288q120 110 234 110q64 0 114 -32q-58 -148 -58 -276q0 -212 230 -212q58 8 87 24t63 55t66 65h10q-10 -112 -77 -151t-183 -39q-250 0 -270 208q-6 -22 -40 -67t-89 -83t-103 -38h-14q-124 34 -124 148zM62 152q0 -32 3 -51t20 -35t49 -16 q88 4 177 141t95 235q-32 40 -88 40q-72 0 -150 -92t-106 -222zM222 629q0 11 8 27t35 52t43 64q44 94 94 106q6 2 12 2q20 0 20 -32t-31 -82t-47 -74q-48 -62 -124 -78q-10 4 -10 15z" />
<glyph unicode="&#xe2;" horiz-adv-x="802" d="M0 142q0 148 154 288q120 110 234 110q64 0 114 -32q-58 -148 -58 -276q0 -212 230 -212q58 8 87 24t63 55t66 65h10q-10 -112 -77 -151t-183 -39q-250 0 -270 210q-10 -52 -91 -121t-145 -69h-10q-124 34 -124 148zM62 152q0 -32 3 -51t20 -35t49 -16q88 4 177 141 t95 235q-32 40 -88 40q-72 0 -150 -92t-106 -222zM154 628q24 58 108 175t144 161q2 -2 6 -2h6q0 -62 25 -122t47 -106l34 -70q18 -32 18 -36v-2l2 -4q0 -10 -11 -19t-24 -9t-19 12q-20 40 -84 200l-32 48q-30 -18 -67 -79t-71 -110t-64 -49q-12 0 -18 12z" />
<glyph unicode="&#xe3;" horiz-adv-x="802" d="M0 142q0 148 154 288q120 110 234 110q64 0 114 -32q-58 -148 -58 -276q0 -212 230 -212q58 8 87 24t63 55t66 65h10q-10 -112 -77 -151t-183 -39q-250 0 -270 210q-10 -52 -91 -121t-145 -69h-10q-124 34 -124 148zM62 152q0 -32 3 -51t20 -35t49 -16q88 4 177 141 t95 235q-32 40 -88 40q-72 0 -150 -92t-106 -222zM86 636v12q0 74 43 101t67 27t40 -6q46 0 122 -44t126 -44h40t32 1t21 4t17 8t16 13t10 18q10 16 10 69t-15 77t-59 24q0 32 45 32t67 -38t22 -92q0 -108 -55 -148t-151 -40q-54 0 -136 52t-127 52t-113 -78h-22z" />
<glyph unicode="&#xe4;" horiz-adv-x="802" d="M0 142q0 148 154 288q120 110 234 110q64 0 114 -32q-58 -148 -58 -276q0 -212 230 -212q58 8 87 24t63 55t66 65h10q-10 -112 -77 -151t-183 -39q-250 0 -270 210q-10 -52 -91 -121t-145 -69h-10q-124 34 -124 148zM62 152q0 -32 3 -51t20 -35t49 -16q88 4 177 141 t95 235q-32 40 -88 40q-72 0 -150 -92t-106 -222zM182 718q0 36 44 52q14 0 36 -21t22 -39q-12 -46 -44 -46q-8 0 -16 4q-42 14 -42 50zM430 718q0 36 44 52q14 0 35 -21t21 -39q-12 -46 -42 -46q-8 0 -18 4q-40 14 -40 50z" />
<glyph unicode="&#xe5;" horiz-adv-x="802" d="M0 139q0 111 83 219t195 154q24 12 36 16q-60 36 -59 108t36 109t95 37q120 0 120 -110q0 -68 -42 -114q-18 -18 -28 -24q36 -6 66 -26q-58 -148 -58 -276q0 -212 230 -212q58 8 87 24t63 55t66 65h10q-10 -112 -77 -151t-183 -39q-250 0 -270 208q-6 -22 -40 -67 t-89 -83t-103 -38h-14q-124 34 -124 145zM62 152q0 -32 3 -51t20 -35t49 -16q88 4 177 141t95 235q-32 40 -88 40q-72 0 -150 -92t-106 -222zM276 644q0 -50 31 -75t65 -25t71 26t37 60q4 16 4 32q0 72 -86 86q-4 2 -6 2q-50 0 -83 -28t-33 -78z" />
<glyph unicode="&#xe6;" horiz-adv-x="1024" d="M0 142q0 148 154 288q120 110 234 110q64 0 114 -32v-2q84 118 206 118q56 0 56 -58q0 -120 -86 -230t-198 -168q-2 -16 -2 -18q0 -52 54 -84t106 -32q132 0 214 49t182 163q22 18 23 32t17 26q20 -8 20 -40q-26 -96 -138 -193t-244 -119q-18 -4 -38 -4q-108 0 -200 108 q-28 -68 -52 -68q-42 0 -52 194q-6 -22 -40 -67t-89 -83t-103 -38h-14q-124 34 -124 148zM62 152q0 -32 3 -51t20 -35t49 -16q88 4 177 141t95 235q-32 40 -88 40q-72 0 -150 -92t-106 -222zM468 308q0 -32 14 -66q78 42 153 136t75 172q-106 -4 -188 -106q-54 -70 -54 -136 z" />
<glyph unicode="&#xe7;" horiz-adv-x="668" d="M17 207q29 139 126 225t173 86q100 0 166 -114v-6l-36 -36q-42 90 -116 90q-26 0 -54 -12q-98 -34 -160 -150q-42 -78 -42 -156q20 -64 118 -64q68 0 140 20t180 56t144 36t36 -20q0 -10 -4 -22q-266 -116 -422 -132q8 -24 8 -46t-6 -54q0 -8 8 -8h14l114 10 q92 0 152 -53t60 -148t-92 -155t-192 -60h-64q-62 32 -62 114t66 82q28 0 28 -16v-2q0 -2 -2 -4l-52 -54q-2 -2 -2 -19t25 -37t51 -20q84 0 164 46t80 126q0 154 -176 154l-130 -20h-22q0 48 -14 94t-12 68q-58 0 -100 16q-122 46 -93 185z" />
<glyph unicode="&#xe8;" d="M-2 244q0 128 85 264t219 136q26 0 42 -15t16 -50t-19 -82t-58 -95t-67 -78t-79 -78t-61 -58q-2 -16 -2 -18q0 -54 52 -84t108 -30q134 0 213 48t183 162q16 20 19 32t21 26q20 -8 20 -38q-20 -62 -80 -133t-142 -121q-114 -66 -193 -66t-153 54t-122 190q-2 18 -2 34z M72 302q0 -28 4 -40q74 40 152 137t78 171q-86 0 -160 -92t-74 -176zM72 1045q0 29 23 29t48 -34t40 -65t40 -63t31 -46t6 -18q0 -16 -10 -20q-14 2 -26 8t-21 10t-19 14l-16 16q-6 6 -18 21t-15 18t-15 22t-30 49t-18 59z" />
<glyph unicode="&#xe9;" d="M-2 244q0 128 85 264t219 136q26 0 42 -15t16 -50t-19 -82t-58 -95t-67 -78t-79 -78t-61 -58q-2 -16 -2 -18q0 -54 52 -84t108 -30q134 0 213 48t183 162q16 20 19 32t21 26q20 -8 20 -38q-20 -62 -80 -133t-142 -121q-114 -66 -193 -66t-153 54t-122 190q-2 18 -2 34z M72 302q0 -28 4 -40q74 40 152 137t78 171q-86 0 -160 -92t-74 -176zM160 741q0 11 7 24t36 50t43 71q52 106 106 106q22 0 22 -33t-37 -91t-73 -93t-94 -49q-10 4 -10 15z" />
<glyph unicode="&#xea;" d="M-2 244q0 128 85 264t219 136q26 0 42 -15t16 -50t-19 -82t-58 -95t-67 -78t-79 -78t-61 -58q-2 -16 -2 -18q0 -54 52 -84t108 -30q134 0 213 48t183 162q16 20 19 32t21 26q20 -8 20 -38q-20 -62 -80 -133t-142 -121q-114 -66 -193 -66t-153 54t-122 190q-2 18 -2 34z M68 768q24 58 108 175t144 161q2 -2 6 -2h6q0 -62 25 -122t47 -106l32 -70q20 -32 20 -36v-2l2 -4q0 -10 -11 -19t-24 -9t-19 12q-20 40 -84 200l-32 48q-30 -18 -67 -79t-71 -110t-64 -49q-12 0 -18 12zM72 302q0 -28 4 -40q74 40 152 137t78 171q-86 0 -160 -92t-74 -176z " />
<glyph unicode="&#xeb;" d="M-2 244q0 128 85 264t219 136q26 0 42 -15t16 -50t-19 -82t-58 -95t-67 -78t-79 -78t-61 -58q-2 -16 -2 -18q0 -54 52 -84t108 -30q134 0 213 48t183 162q16 20 19 32t21 26q20 -8 20 -38q-20 -62 -80 -133t-142 -121q-114 -66 -193 -66t-153 54t-122 190q-2 18 -2 34z M72 302q0 -28 4 -40q74 40 152 137t78 171q-86 0 -160 -92t-74 -176zM94 834q0 36 44 52q14 0 36 -21t22 -39q-12 -46 -44 -46q-8 0 -16 4q-42 14 -42 50zM342 834q0 36 44 52q14 0 35 -21t21 -39q-12 -46 -42 -46q-8 0 -18 4q-40 14 -40 50z" />
<glyph unicode="&#xec;" horiz-adv-x="414" d="M14 224q0 84 12 204l8 26q40 128 68 128q40 0 40 -30q0 -6 -2 -12q-76 -186 -76 -354q0 -76 38 -127t116 -51q196 76 246 76q16 0 16 -8q0 -24 -104 -69t-163 -45t-89 9t-44 17t-34 35t-26 72t-6 129zM72 957q0 27 24 27t62 -54q14 -20 27 -48t38 -63t35 -53 q6 -22 -8 -26q-32 8 -61 30t-43 41t-44 69t-30 77z" />
<glyph unicode="&#xed;" horiz-adv-x="414" d="M14 224q0 84 12 204l8 26q40 128 68 128q40 0 40 -30q0 -6 -2 -12q-76 -186 -76 -354q0 -76 38 -127t116 -51q196 76 246 76q16 0 16 -8q0 -24 -104 -69t-163 -45t-89 9t-44 17t-34 35t-26 72t-6 129zM48 795q0 13 6 24t36 50t44 71q56 108 108 108q20 0 20 -32t-37 -92 t-73 -95t-92 -47q-12 0 -12 13z" />
<glyph unicode="&#xee;" horiz-adv-x="414" d="M-24 812q42 78 117 187t133 145l2 -2h12q0 -60 72 -226l26 -58l28 -46v-2q2 -16 -11 -25t-26 -9t-17 12q-8 14 -43 100t-43 100q-4 22 -28 46q-28 -14 -56 -54l-48 -80q-60 -102 -100 -102q-10 0 -18 14zM14 224q0 84 12 204l8 26q40 128 68 128q40 0 40 -30q0 -6 -2 -12 q-76 -186 -76 -354q0 -76 38 -127t116 -51q196 76 246 76q16 0 16 -8q0 -24 -104 -69t-163 -45t-89 9t-44 17t-34 35t-26 72t-6 129z" />
<glyph unicode="&#xef;" horiz-adv-x="414" d="M10 842q0 36 40 54q14 0 35 -21t21 -39q-12 -46 -42 -46q-8 0 -18 4q-36 12 -36 48zM14 224q0 84 12 204l8 26q40 128 68 128q40 0 40 -30q0 -6 -2 -12q-76 -186 -76 -354q0 -76 38 -127t116 -51q196 76 246 76q16 0 16 -8q0 -24 -104 -69t-163 -45t-89 9t-44 17t-34 35 t-26 72t-6 129zM256 842q0 36 40 54q16 0 37 -21t21 -39q-14 -46 -44 -46q-8 0 -18 4q-36 12 -36 48z" />
<glyph unicode="&#xf0;" horiz-adv-x="584" d="M6 156q40 132 87 212t113 115t120 44t150 9l-102 120q-40 -40 -96 -54q-6 2 -10 13t4 24t30 42t24 31l-82 100q-12 28 -12 46q0 22 22 22q42 0 124 -78q40 66 71 66t31 -28q0 -36 -20 -66t-22 -40q108 -148 108 -288q0 -124 -70 -214q-6 -6 -46 -49t-56 -58t-55 -49 t-65 -48q-74 -40 -131 -40t-82 27t-30 58t-5 83zM78 149q0 -105 56 -105q78 0 201 119t123 203q0 50 -21 73t-69 23q-112 0 -201 -104t-89 -209z" />
<glyph unicode="&#xf1;" horiz-adv-x="862" d="M-2 32v44l86 278q0 146 50 216q14 20 26 20q20 0 20 -67t-20 -148t-20 -135q16 16 96 112t96 112q14 8 48 40q72 64 126 64q30 0 38 -20q2 -22 2 -71t-16 -154t-18 -167q0 -94 78 -94q56 0 108 31t84 70t74 90t74 75v-20q0 -96 -124 -199t-226 -103h-66q-30 20 -39 38 l-13 26t-5 25t-1 25v88q0 36 1 125t1 153q-56 -12 -163 -144t-117 -138q-78 -104 -122 -148q-18 -24 -58 -24zM124 802v12q0 74 43 101t67 27t40 -6q46 0 122 -44t126 -44h41t31 1t21 4t17 8t16 13t10 18q10 16 10 69t-15 77t-59 24q0 32 45 32t67 -38t22 -92 q0 -108 -55 -148t-151 -40q-54 0 -136 52t-127 52t-113 -78h-22z" />
<glyph unicode="&#xf2;" horiz-adv-x="768" d="M4 190q0 96 81 218t187 122q48 0 62 -40q-112 -34 -192 -118t-80 -194q0 -38 4 -60t22 -40t70 -18q108 0 176 90q-20 34 -20 111t13 146t53 133t100 64t82 -38l4 -76q0 -42 -5 -65t-7 -35t-10 -31t-10 -27t-14 -30t-15 -28t-18 -33t-19 -35h40q116 0 340 112l16 -18 q-192 -154 -452 -168l-176 -108q-24 -20 -105 -20t-104 45t-23 141zM282 977q0 29 23 29t49 -35t40 -65t39 -62t31 -46t6 -18q0 -16 -10 -20q-14 2 -26 8t-21 10t-21 14l-16 16q-4 6 -16 21t-15 18t-15 22t-30 49t-18 59zM372 294q0 -66 20 -70q56 32 87 104t31 140v4l2 26 q0 40 -24 48q-52 -30 -84 -108t-32 -144z" />
<glyph unicode="&#xf3;" horiz-adv-x="768" d="M4 190q0 96 81 218t187 122q48 0 62 -40q-112 -34 -192 -118t-80 -194q0 -38 4 -60t22 -40t70 -18q108 0 176 90q-20 34 -20 111t13 146t53 133t100 64t82 -38l4 -76q0 -42 -5 -65t-7 -35t-10 -31t-10 -27t-14 -30t-15 -28t-18 -33t-19 -35h40q116 0 340 112l16 -18 q-192 -154 -452 -168l-176 -108q-24 -20 -105 -20t-104 45t-23 141zM230 685q0 11 7 24t36 50t43 71q52 106 106 106q22 0 22 -33t-37 -91t-73 -93t-94 -49q-10 4 -10 15zM372 294q0 -66 20 -70q56 32 87 104t31 140v4l2 26q0 40 -24 48q-52 -30 -84 -108t-32 -144z" />
<glyph unicode="&#xf4;" horiz-adv-x="768" d="M4 190q0 96 81 218t187 122q48 0 62 -40q-112 -34 -192 -118t-80 -194q0 -38 4 -60t22 -40t70 -18q108 0 176 90q-20 34 -20 111t13 146t53 133t100 64t82 -38l4 -76q0 -42 -5 -65t-7 -35t-10 -31t-10 -27t-14 -30t-15 -28t-18 -33t-19 -35h40q116 0 340 112l16 -18 q-192 -154 -452 -168l-176 -108q-24 -20 -105 -20t-104 45t-23 141zM162 756q24 58 108 175t144 161q2 -2 6 -2h6q0 -62 25 -122t47 -106l34 -70q18 -32 18 -36v-2l2 -4q0 -10 -11 -19t-24 -9t-19 12q-20 40 -84 200l-32 48q-30 -18 -67 -79t-71 -110t-64 -49q-12 0 -18 12z M372 294q0 -66 20 -70q56 32 87 104t31 140v4l2 26q0 40 -24 48q-52 -30 -84 -108t-32 -144z" />
<glyph unicode="&#xf5;" horiz-adv-x="768" d="M4 190q0 96 81 218t187 122q48 0 62 -40q-112 -34 -192 -118t-80 -194q0 -38 4 -60t22 -40t70 -18q108 0 176 90q-20 34 -20 111t13 146t53 133t100 64t82 -38l4 -76q0 -42 -5 -65t-7 -35t-10 -31t-10 -27t-14 -30t-15 -28t-18 -33t-19 -35h40q116 0 340 112l16 -18 q-192 -154 -452 -168l-176 -108q-24 -20 -105 -20t-104 45t-23 141zM90 756v12q0 74 43 101t67 27t40 -6q46 0 122 -44t126 -44h40t32 1t21 4t17 8t16 13t10 18q10 16 10 69t-15 77t-59 24q0 32 45 32t67 -38t22 -92q0 -108 -55 -148t-151 -40q-54 0 -136 52t-127 52 t-113 -78h-22zM372 294q0 -66 20 -70q56 32 87 104t31 140v4l2 26q0 40 -24 48q-52 -30 -84 -108t-32 -144z" />
<glyph unicode="&#xf6;" horiz-adv-x="768" d="M4 190q0 96 81 218t187 122q48 0 62 -40q-112 -34 -192 -118t-80 -194q0 -38 4 -60t22 -40t70 -18q108 0 176 90q-20 34 -20 111t13 146t53 133t100 64t82 -38l4 -76q0 -42 -5 -65t-7 -35t-10 -31t-10 -27t-14 -30t-15 -28t-18 -33t-19 -35h40q116 0 340 112l16 -18 q-192 -154 -452 -168l-176 -108q-24 -20 -105 -20t-104 45t-23 141zM222 796q0 36 44 52q14 0 36 -21t22 -39q-12 -46 -44 -46q-8 0 -16 4q-42 14 -42 50zM372 294q0 -66 20 -70q56 32 87 104t31 140v4l2 26q0 40 -24 48q-52 -30 -84 -108t-32 -144zM470 796q0 36 44 52 q14 0 35 -21t21 -39q-12 -46 -42 -46q-8 0 -18 4q-40 14 -40 50z" />
<glyph unicode="&#xf7;" horiz-adv-x="1010" d="M136 502v36q60 6 286 13t298 7l106 2h106q0 -14 -6 -36t-16 -22h-774zM430 766q0 12 19 37t35 25q40 0 52 -11t12 -35q-4 -60 -76 -60q-32 0 -40 26q-2 6 -2 18zM453 362q21 34 41 34q90 0 90 -48q0 -32 -28 -54t-76 -22q-2 0 -26 34q-22 22 -1 56z" />
<glyph unicode="&#xf8;" horiz-adv-x="768" d="M-82 -46q0 12 82 116l10 14q-6 30 -6 94q0 108 81 230t187 122q48 0 62 -40q-112 -34 -192 -118t-80 -194v-28q6 8 28 33t56 68t188 217l16 16q42 106 106 118q156 182 202 228l14 2h20q10 0 17 -8t5 -21t-20 -40t-26 -29q-80 -74 -142 -138q22 -8 36 -30l4 -76 q0 -42 -5 -65t-7 -35t-10 -31t-10 -27t-14 -30t-15 -28t-18 -33t-19 -35h40q116 0 340 112l16 -18q-192 -154 -452 -168l-176 -108q-24 -20 -96 -20t-100 28q-68 -100 -72 -108q-6 -8 -16 -8q-30 0 -34 38zM80 84q16 -24 72 -24q114 0 182 90q-20 34 -20 102t8 118v10 l-28 -32q-154 -184 -176 -214zM372 294q0 -66 20 -70q56 32 87 104t31 140v4l2 26q0 40 -24 48q-52 -30 -84 -108t-32 -144z" />
<glyph unicode="&#xf9;" horiz-adv-x="758" d="M8 94q0 128 162 426q12 -24 12 -53t-19 -80t-60 -141t-47 -160q0 -42 28 -46h40q74 0 151 89t121 194t44 167l22 24q28 0 28 -20q-26 -132 -26 -220t13 -129t44 -63t54 -24t57 0q144 70 173 70t29 -10q0 -14 -58 -48t-144 -50q-220 0 -220 200q0 22 2 46q-12 -22 -33 -67 t-33 -69t-36 -57t-48 -49q-66 -42 -154 -42q-38 4 -62 18q-40 22 -40 94zM202 921q0 29 23 29t49 -35t40 -65t39 -62t31 -46t6 -18q0 -16 -10 -20q-14 2 -26 8t-21 10t-21 14l-16 16q-4 6 -16 21t-15 18t-15 22t-30 49t-18 59z" />
<glyph unicode="&#xfa;" horiz-adv-x="758" d="M8 94q0 128 162 426q12 -24 12 -53t-19 -80t-60 -141t-47 -160q0 -42 28 -46h40q74 0 151 89t121 194t44 167l22 24q28 0 28 -20q-26 -132 -26 -220t13 -129t44 -63t54 -24t57 0q144 70 173 70t29 -10q0 -14 -58 -48t-144 -50q-220 0 -220 200q0 22 2 46q-12 -22 -33 -67 t-33 -69t-36 -57t-48 -49q-66 -42 -154 -42q-38 4 -62 18q-40 22 -40 94zM286 679q0 11 7 24t36 50t43 71q52 106 106 106q22 0 22 -33t-37 -91t-73 -93t-94 -49q-10 4 -10 15z" />
<glyph unicode="&#xfb;" horiz-adv-x="758" d="M8 94q0 128 162 426q12 -24 12 -53t-19 -80t-60 -141t-47 -160q0 -42 28 -46h40q74 0 151 89t121 194t44 167l22 24q28 0 28 -20q-26 -132 -26 -220t13 -129t44 -63t54 -24t57 0q144 70 173 70t29 -10q0 -14 -58 -48t-144 -50q-220 0 -220 200q0 22 2 46q-12 -22 -33 -67 t-33 -69t-36 -57t-48 -49q-66 -42 -154 -42q-38 4 -62 18q-40 22 -40 94zM162 658q24 58 108 175t144 161q2 -2 6 -2h6q0 -62 25 -122t47 -106l34 -70q18 -32 18 -36v-2l2 -4q0 -10 -11 -19t-24 -9t-19 12q-20 40 -84 200l-32 48q-30 -18 -67 -79t-71 -110t-64 -49 q-12 0 -18 12z" />
<glyph unicode="&#xfc;" horiz-adv-x="758" d="M8 94q0 128 162 426q12 -24 12 -53t-19 -80t-60 -141t-47 -160q0 -42 28 -46h40q74 0 151 89t121 194t44 167l22 24q28 0 28 -20q-26 -132 -26 -220t13 -129t44 -63t54 -24t57 0q144 70 173 70t29 -10q0 -14 -58 -48t-144 -50q-220 0 -220 200q0 22 2 46q-12 -22 -33 -67 t-33 -69t-36 -57t-48 -49q-66 -42 -154 -42q-38 4 -62 18q-40 22 -40 94zM172 740q0 36 44 52q14 0 36 -21t22 -39q-12 -46 -44 -46q-8 0 -16 4q-42 14 -42 50zM420 740q0 36 44 52q14 0 35 -21t21 -39q-12 -46 -42 -46q-8 0 -18 4q-40 14 -40 50z" />
<glyph unicode="&#xfd;" horiz-adv-x="632" d="M-40 -780q0 162 112 376t250 358q18 40 18 104t2 86q-118 -154 -228 -154h-4q-88 0 -88 200q0 16 2 85t38 239q2 4 16 11t20 7q24 0 22 -49t-22 -180t-20 -155v-56q0 -24 3 -26t7 -10t11 -6t16 -3t23 1q80 0 126 68q26 36 43 64t34 85t24 78t19 81l14 60q10 6 25 6 t33 -24v-8q0 -68 -29 -209t-29 -237q22 16 123 78t114 73t29 27t16 8q0 -12 -52 -100q-10 -10 -97 -85t-95 -83q-64 -138 -88 -442q-8 -100 -32 -192q-46 -174 -224 -174q-22 0 -55 1t-55 28t-22 69zM20 -725q0 -95 66 -95h25t55 22t57 68t38 96t25 122t16 124t11 125t9 105 q-2 0 -4 2h-4q-60 0 -177 -237t-117 -332zM198 661q0 11 7 24t36 50t43 71q52 106 106 106q22 0 22 -33t-37 -91t-73 -93t-94 -49q-10 4 -10 15z" />
<glyph unicode="&#xfe;" horiz-adv-x="746" d="M90 953q0 97 2 131q2 208 48 312h2q22 0 33 -111t11 -181q0 -232 -16 -282q66 104 160 176t188 92q148 -48 148 -219t-128 -321t-330 -160q12 -224 12 -403t-32 -179q-28 0 -76 218l-10 516q8 34 8 85t-10 140t-10 186zM214 584q0 -42 10 -80q34 -14 66 -14q94 0 184 118 q106 136 106 292q0 108 -82 108q-136 0 -226 -200q-58 -122 -58 -224z" />
<glyph unicode="&#xff;" horiz-adv-x="632" d="M-40 -780q0 162 112 376t250 358q18 40 18 104t2 86q-118 -154 -228 -154h-4q-88 0 -88 200q0 16 2 85t38 239q2 4 16 11t20 7q24 0 22 -49t-22 -180t-20 -155v-56q0 -24 3 -26t7 -10t11 -6t16 -3t23 1q80 0 126 68q26 36 43 64t34 85t24 78t19 81l14 60q10 6 25 6 t33 -24v-8q0 -68 -29 -209t-29 -237q22 16 123 78t114 73t29 27t16 8q0 -12 -52 -100q-10 -10 -97 -85t-95 -83q-64 -138 -88 -442q-8 -100 -32 -192q-46 -174 -224 -174q-22 0 -55 1t-55 28t-22 69zM20 -725q0 -95 66 -95h25t55 22t57 68t38 96t25 122t16 124t11 125t9 105 q-2 0 -4 2h-4q-60 0 -177 -237t-117 -332zM102 734q0 36 44 52q14 0 36 -21t22 -39q-12 -46 -44 -46q-8 0 -16 4q-42 14 -42 50zM350 734q0 36 44 52q14 0 35 -21t21 -39q-12 -46 -42 -46q-8 0 -18 4q-40 14 -40 50z" />
<glyph unicode="&#x152;" horiz-adv-x="1674" d="M46 578v114l2 70v14q0 34 36 264q14 78 48 160q60 152 144 152v-30q-176 -294 -176 -758q0 -172 32 -274t144 -196q24 -18 62 -18q128 0 242 87t186 223q18 76 78 176l6 30q4 20 8 30q-32 -2 -64 -2q-230 0 -337 113t-107 401q0 162 29 293t65 207t102 129t138 53 t122 -37t82 -97q60 -108 86 -226l2 -142v-142q0 -46 -4 -126q48 156 161 295t225 139q76 0 128 -62t52 -142l2 -40q0 -40 -32 -40h-8q-38 150 -69 189t-61 39q-134 0 -240 -171t-106 -313q0 -58 22 -144h18q48 0 155 40t167 40h42q110 0 110 -65t-62 -111q-104 -74 -260 -74 q-40 0 -95 30t-87 30h-10q-78 -58 -130 -144q-14 -54 -50 -130q-8 -26 -8 -107t44 -135t144 -90q58 -10 118 -10t144 22t229 106t183 100q18 -40 18 -53t-18 -23q-448 -218 -578 -218t-236 76t-122 194q-180 -256 -412 -256q-142 0 -208 102q-68 104 -80 200 q-16 148 -16 258zM404 1091q0 -111 31 -204t107 -160t184 -67l54 -2q86 0 98 40q16 118 40 172v20l16 376q0 132 -30 248q-58 224 -194 244q-10 2 -20 2q-58 0 -110 -53t-84 -139t-54 -188q-38 -178 -38 -289zM954 718l22 10q4 4 4 6l8 8v8q0 36 -30 108q-4 -40 -4 -60v-80z M1122 732q0 -48 110 -48q70 0 142 23t106 73q-26 38 -84 38t-166 -24t-108 -62z" />
<glyph unicode="&#x153;" horiz-adv-x="1088" d="M4 190q0 96 81 218t187 122q48 0 62 -40q-112 -34 -192 -118t-80 -194q0 -38 4 -60t22 -40t70 -18q108 0 176 90q-20 34 -20 111t13 146t53 133t100 64t82 -38v-8q62 46 130 46q26 0 42 -16t16 -40q0 -70 -58 -158t-105 -132t-121 -110q-2 -14 -2 -18q0 -54 53 -85 t107 -31q132 0 217 51t179 161q18 18 20 32t20 26q20 -8 20 -40q-18 -60 -74 -129t-136 -119q-118 -70 -194 -70q-180 0 -270 202l-170 -104q-24 -20 -105 -20t-104 45t-23 141zM370 262q0 -32 18 -38q22 124 122 288q-4 32 -22 34q-52 -30 -84 -108t-32 -148v-10zM462 248 q0 -16 4 -24q74 46 150 138t80 168q-70 0 -148 -78z" />
<glyph unicode="&#x2c6;" horiz-adv-x="584" d="M96 950q24 58 108 175t144 161q2 -2 6 -2h6q0 -62 25 -122t47 -106l32 -70q20 -32 20 -36v-2l2 -4q0 -10 -11 -19t-24 -9t-19 12q-20 40 -84 200l-32 48q-30 -18 -67 -79t-71 -110t-64 -49q-12 0 -18 12z" />
<glyph unicode="&#x2dc;" horiz-adv-x="756" d="M82 1042v12q0 74 43 101t67 27t40 -6q46 0 122 -44t126 -44h40t32 1t21 4t17 8t16 13t10 18q10 16 10 69t-15 77t-59 24q0 32 45 32t67 -38t22 -92q0 -108 -55 -148t-151 -40q-54 0 -136 52t-127 52t-113 -78h-22z" />
<glyph unicode="&#x2000;" horiz-adv-x="1151" />
<glyph unicode="&#x2001;" horiz-adv-x="2302" />
<glyph unicode="&#x2002;" horiz-adv-x="1151" />
<glyph unicode="&#x2003;" horiz-adv-x="2302" />
<glyph unicode="&#x2004;" horiz-adv-x="767" />
<glyph unicode="&#x2005;" horiz-adv-x="575" />
<glyph unicode="&#x2006;" horiz-adv-x="383" />
<glyph unicode="&#x2007;" horiz-adv-x="383" />
<glyph unicode="&#x2008;" horiz-adv-x="287" />
<glyph unicode="&#x2009;" horiz-adv-x="460" />
<glyph unicode="&#x200a;" horiz-adv-x="127" />
<glyph unicode="&#x2010;" d="M98 471q0 25 4 34t13 12t16 4t22 0t21 -1l384 10h10q32 0 32 -40q0 -34 -42 -36l-440 -8h-2q-18 0 -18 25z" />
<glyph unicode="&#x2011;" d="M98 471q0 25 4 34t13 12t16 4t22 0t21 -1l384 10h10q32 0 32 -40q0 -34 -42 -36l-440 -8h-2q-18 0 -18 25z" />
<glyph unicode="&#x2012;" d="M98 471q0 25 4 34t13 12t16 4t22 0t21 -1l384 10h10q32 0 32 -40q0 -34 -42 -36l-440 -8h-2q-18 0 -18 25z" />
<glyph unicode="&#x2013;" horiz-adv-x="866" d="M98 471q0 25 4 34t13 12t16 4t22 0t21 -1l590 18h12q28 0 28 -29t-8 -37t-32 -10l-646 -16h-2q-18 0 -18 25z" />
<glyph unicode="&#x2014;" horiz-adv-x="1270" d="M98 471q0 25 4 34t13 12t16 4t22 0t21 -1l936 32h14q28 0 28 -29t-8 -37t-34 -10l-992 -30h-2q-18 0 -18 25z" />
<glyph unicode="&#x2018;" horiz-adv-x="188" d="M48 794q0 14 18 73t18 86t-11 63t-11 60q38 0 68 -29t30 -65q0 -140 -94 -218q-4 0 -11 8t-7 22z" />
<glyph unicode="&#x2019;" horiz-adv-x="276" d="M96 746q6 22 38 74t39 78t6 65t7 61q36 -10 54 -41t18 -50t-6 -35q-66 -152 -144 -176q-12 0 -12 24z" />
<glyph unicode="&#x201a;" horiz-adv-x="248" d="M86 -75q0 15 19 73t19 85t-12 63t-12 60q40 0 72 -31t28 -73q-26 -160 -96 -206q-4 0 -11 7t-7 22z" />
<glyph unicode="&#x201c;" horiz-adv-x="520" d="M182 995q0 35 30 35q38 0 53 -44t15 -99t-22 -105h-8q-18 0 -43 89t-25 124zM350 1012q0 18 14 33t31 15t31 -7t21 -20t12 -26t6 -34t2 -31t1 -18l-2 -44l-4 -64l-18 -22q-6 16 -31 64t-44 92t-19 62z" />
<glyph unicode="&#x201d;" horiz-adv-x="520" d="M182 995q0 35 30 35q38 0 53 -44t15 -99t-22 -105h-8q-18 0 -43 89t-25 124zM350 1012q0 18 14 33t31 15t31 -7t21 -20t12 -26t6 -34t2 -31t1 -18l-2 -44l-4 -64l-18 -22q-6 16 -31 64t-44 92t-19 62z" />
<glyph unicode="&#x201e;" horiz-adv-x="440" d="M78 92q0 38 28 38q68 0 68 -134q0 -66 -22 -114l-6 -2q-22 0 -45 87t-23 125zM242 107q0 21 15 36t33 15t32 -7t21 -20t12 -26t6 -33t2 -30t1 -18l-2 -44l-4 -66l-20 -20l-50 100q-46 92 -46 113z" />
<glyph unicode="&#x2022;" horiz-adv-x="376" d="M110 426q0 28 18 56q40 56 68 56q60 0 81 -20t21 -60q-4 -78 -76 -100q-20 -6 -47 -6t-46 23t-19 51z" />
<glyph unicode="&#x202f;" horiz-adv-x="460" />
<glyph unicode="&#x2039;" horiz-adv-x="738" d="M116 500v6q0 12 16 18q232 100 430 230q18 12 28 11t12 -1q32 -8 32 -24q0 -10 -16 -26q-238 -148 -398 -214l342 -396q2 -4 -4 -17t-12 -19h-14q-36 0 -62 66q-150 178 -216 244t-138 122z" />
<glyph unicode="&#x203a;" horiz-adv-x="618" d="M58 772q0 6 30 24h2l4 2q14 0 38 -14q198 -124 434 -224q18 -6 18 -18v-6q-12 -8 -63 -50t-59 -48q-16 -20 -119 -131t-112 -123t-17 -26t-14 -22q-12 -22 -40 -22h-12q-22 18 -16 38l344 384q-182 74 -402 212q-4 2 -10 10t-6 14z" />
<glyph unicode="&#x205f;" horiz-adv-x="575" />
<glyph unicode="&#x20ac;" horiz-adv-x="980" d="M20 528q0 30 22 36h26l62 2h38q4 98 16 172h-106q-14 0 -36 14t-22 30q0 32 57 32t121 -2q50 290 176 466q104 146 222 146q144 0 294 -188q-2 -20 -30 -20h-6l-2 2q-126 140 -242 140q-104 0 -194 -138q-98 -154 -144 -410q320 -12 348 -58l-18 -16l-344 2 q-16 -94 -18 -172h276q106 0 142 -22q-18 -40 -420 -54q10 -214 130 -342q66 -72 154 -72q164 0 260 54t126 182q20 -6 19 -39t-1 -37q-76 -236 -404 -236q-120 0 -210 97t-130 223q-16 76 -16 168q-56 -2 -101 -2t-45 42z" />
<glyph unicode="&#x25fc;" horiz-adv-x="640" d="M0 0v640h640v-640h-640z" />
</font>
</defs>
</svg>
